<svg width="32" height="32" viewBox="0 0 32 32" fill="none" xmlns="http://www.w3.org/2000/svg">
<rect width="32" height="32" rx="16" fill="#F5F5F5"/>
<path d="M13.2909 4.38721C12.2036 4.38721 11.2683 5.0294 10.8367 5.95379C10.752 5.94566 10.668 5.93559 10.5812 5.93559C9.08473 5.93559 7.87157 7.14876 7.87157 8.64527V8.80863C7.26499 9.07417 6.82834 9.64205 6.7366 10.321L6.71028 10.3059C5.59079 10.6392 4.77479 11.6759 4.77479 12.9033C4.77479 13.4248 4.9246 13.9102 5.18008 14.3236C4.68886 14.8717 4.3877 15.5933 4.3877 16.3872C4.3877 17.2946 4.77944 18.1094 5.4015 18.6757C5.24744 19.0439 5.16189 19.4472 5.16189 19.8711C5.16189 21.4504 6.34408 22.7534 7.87157 22.9439V22.9431V22.9679H8.01789C8.29428 23.7502 8.96899 24.3432 9.80666 24.4841L9.81247 24.4129C9.81131 24.4477 9.80705 24.4814 9.80705 24.5162C9.80705 26.2264 11.1936 27.613 12.9038 27.613C14.614 27.613 16.0006 26.2264 16.0006 24.5162V7.09688C16.0006 5.60037 14.7874 4.38721 13.2909 4.38721ZM7.87157 18.3053V18.3227C7.8677 18.3331 7.86847 18.3246 7.87157 18.3053Z" fill="url(#paint0_linear_2059_1378)"/>
<path d="M18.709 14.4515H17.1606V13.6773H18.709C18.9223 13.6773 19.0961 13.5035 19.0961 13.2902V10.5806H19.8703V13.2902C19.8703 13.9305 19.3493 14.4515 18.709 14.4515Z" fill="#29292A"/>
<path d="M19.4836 9.80598C18.8433 9.80598 18.3223 9.28495 18.3223 8.64469C18.3223 8.00443 18.8433 7.4834 19.4836 7.4834C20.1238 7.4834 20.6448 8.00443 20.6448 8.64469C20.6448 9.28495 20.1238 9.80598 19.4836 9.80598ZM19.4836 8.25759C19.2703 8.25759 19.0965 8.4314 19.0965 8.64469C19.0965 8.85798 19.2703 9.03179 19.4836 9.03179C19.6968 9.03179 19.8707 8.85798 19.8707 8.64469C19.8707 8.4314 19.6968 8.25759 19.4836 8.25759Z" fill="#29292A"/>
<path d="M19.8703 21.4188H19.0961V18.7091C19.0961 18.4959 18.9223 18.322 18.709 18.322H17.1606V17.5479H18.709C19.3493 17.5479 19.8703 18.0689 19.8703 18.7091V21.4188Z" fill="#29292A"/>
<path d="M19.4836 24.5169C18.8433 24.5169 18.3223 23.9959 18.3223 23.3556C18.3223 22.7154 18.8433 22.1943 19.4836 22.1943C20.1238 22.1943 20.6448 22.7154 20.6448 23.3556C20.6448 23.9959 20.1238 24.5169 19.4836 24.5169ZM19.4836 22.9685C19.2703 22.9685 19.0965 23.1423 19.0965 23.3556C19.0965 23.5689 19.2703 23.7427 19.4836 23.7427C19.6968 23.7427 19.8707 23.5689 19.8707 23.3556C19.8707 23.1423 19.6968 22.9685 19.4836 22.9685Z" fill="#29292A"/>
<path d="M21.0316 16.3873H17.1606V15.6131H21.0316C21.6719 15.6131 22.1929 15.0921 22.1929 14.4518V13.2905H22.9671V14.4518C22.9671 15.519 22.0988 16.3873 21.0316 16.3873Z" fill="#29292A"/>
<path d="M22.5812 12.5164C21.941 12.5164 21.4199 11.9954 21.4199 11.3551C21.4199 10.7149 21.941 10.1938 22.5812 10.1938C23.2215 10.1938 23.7425 10.7149 23.7425 11.3551C23.7425 11.9954 23.2215 12.5164 22.5812 12.5164ZM22.5812 10.968C22.3679 10.968 22.1941 11.1418 22.1941 11.3551C22.1941 11.5684 22.3679 11.7422 22.5812 11.7422C22.7945 11.7422 22.9683 11.5684 22.9683 11.3551C22.9683 11.1418 22.7945 10.968 22.5812 10.968Z" fill="#29292A"/>
<path d="M22.9676 17.5483H22.1934V21.4193H22.9676V17.5483Z" fill="#29292A"/>
<path d="M24.9031 12.1289H24.1289V18.3225H24.9031V12.1289Z" fill="#29292A"/>
<path d="M24.9031 19.0967H24.1289V19.8709H24.9031V19.0967Z" fill="#29292A"/>
<path d="M17.8511 4.14206C17.2898 4.05574 16.7208 4.21716 16.2895 4.58645C16.0693 4.77497 15.8982 5.008 15.7828 5.26619C15.2181 4.50013 14.3126 4 13.2903 4C12.1461 4 11.1474 4.62516 10.6112 5.55071C10.6012 5.55032 10.5907 5.54839 10.5806 5.54839C8.89832 5.54839 7.528 6.89742 7.48774 8.57006C6.95084 8.88052 6.55058 9.39845 6.39535 10.0143C5.20542 10.4649 4.3871 11.6173 4.3871 12.9032C4.3871 13.3813 4.49935 13.8524 4.71303 14.2809C4.25123 14.8863 4 15.6241 4 16.3871C4 17.2797 4.3449 18.1333 4.95265 18.7774C4.83845 19.1215 4.77419 19.4889 4.77419 19.871C4.77419 21.5912 6.03613 23.0506 7.72426 23.3107C8.04361 24.0203 8.65987 24.5692 9.43329 24.7929C9.57535 26.5848 11.0757 28 12.9032 28C14.0583 28 15.081 27.4325 15.7151 26.5643C15.8254 26.8902 16.0217 27.1844 16.2892 27.4135C16.6441 27.7174 17.092 27.8812 17.5523 27.8812C17.6514 27.8812 17.7512 27.8734 17.8507 27.8579C23.7319 26.9475 28 21.9601 28 16C28 10.0399 23.7319 5.05252 17.8511 4.14206ZM12.9032 27.2258C11.409 27.2258 10.1935 26.0103 10.1935 24.5161C10.1935 23.0219 11.409 21.8065 12.9032 21.8065V21.0323C11.1644 21.0323 9.72284 22.3147 9.46464 23.9823C8.74774 23.6924 8.25806 22.9979 8.25806 22.1935C8.25806 21.1263 9.12632 20.2581 10.1935 20.2581V19.4839C8.69935 19.4839 7.48387 20.6994 7.48387 22.1935C7.48387 22.2872 7.48968 22.3794 7.49897 22.4707C6.36245 22.1397 5.54839 21.0895 5.54839 19.871C5.54839 18.3768 6.76387 17.1613 8.25806 17.1613V16.3871C7.0209 16.3871 5.9351 17.0374 5.3169 18.0117C4.96813 17.5465 4.77419 16.9774 4.77419 16.3871C4.77419 15.7221 5.02039 15.081 5.46787 14.5817L5.66103 14.3661L5.5089 14.1199C5.28168 13.7521 5.16129 13.3314 5.16129 12.9032C5.16129 12.0597 5.63161 11.2937 6.34503 10.8872C6.496 12.0234 7.46877 12.9032 8.64516 12.9032V12.129C7.79123 12.129 7.09677 11.4346 7.09677 10.5806C7.09677 9.72671 7.79123 9.03226 8.64516 9.03226C9.4991 9.03226 10.1935 9.72671 10.1935 10.5806H10.9677C10.9677 9.29974 9.92606 8.25806 8.64516 8.25806C8.52361 8.25806 8.40516 8.27045 8.28826 8.28826C8.44619 7.27135 9.26413 6.47161 10.2903 6.34271C10.2295 6.58465 10.1935 6.83626 10.1935 7.09677C10.1935 8.80426 11.5828 10.1935 13.2903 10.1935V9.41935C12.0094 9.41935 10.9677 8.37768 10.9677 7.09677C10.9677 5.81587 12.0094 4.77419 13.2903 4.77419C14.5712 4.77419 15.6129 5.81587 15.6129 7.09677V24.5161C15.6129 26.0103 14.3974 27.2258 12.9032 27.2258ZM17.7323 27.093C17.3951 27.1465 17.0525 27.0477 16.7932 26.8259C16.535 26.6045 16.3871 26.2828 16.3871 25.9437V6.05626C16.3871 5.71677 16.535 5.3951 16.7932 5.17406C17.0065 4.99135 17.2763 4.89303 17.553 4.89303C17.6126 4.89303 17.6726 4.89768 17.7326 4.90697C23.1446 5.74503 27.2258 10.5141 27.2258 16C27.2258 21.4859 23.1446 26.255 17.7323 27.093Z" fill="#24252E"/>
<path d="M14.0633 6.70898H13.2891V7.48318H14.0633V6.70898Z" fill="#24252E"/>
<path d="M12.1297 15.6133H11.3555V16.3875H12.1297V15.6133Z" fill="#24252E"/>
<path d="M14.4519 24.1289H13.6777V24.9031H14.4519V24.1289Z" fill="#24252E"/>
<path d="M7.87185 18.3223H7.09766V19.0965H7.87185V18.3223Z" fill="#24252E"/>
<path d="M14.8386 12.9033H14.0645V13.6775H14.8386V12.9033Z" fill="#24252E"/>
<path d="M7.48513 13.6777H6.71094V14.4519H7.48513V13.6777Z" fill="#24252E"/>
<defs>
<linearGradient id="paint0_linear_2059_1378" x1="6.39016" y1="8.62119" x2="46.9861" y2="28.3278" gradientUnits="userSpaceOnUse">
<stop stop-color="#41C791"/>
<stop offset="0.620217" stop-color="#0674F0"/>
<stop offset="0.680217" stop-color="#6961B5"/>
<stop offset="0.813" stop-color="#F34660"/>
<stop offset="1" stop-color="#EE078D"/>
</linearGradient>
</defs>
</svg>
