<svg width="48" height="48" viewBox="0 0 48 48" fill="none" xmlns="http://www.w3.org/2000/svg">
<path d="M24 36C23.34 36 22.775 35.765 22.305 35.295C21.835 34.825 21.6 34.26 21.6 33.6H26.4C26.4 34.26 26.165 34.825 25.695 35.295C25.225 35.765 24.66 36 24 36ZM19.2 32.4V30H28.8V32.4H19.2ZM19.5 28.8C18.12 27.98 17.025 26.88 16.215 25.5C15.405 24.12 15 22.62 15 21C15 18.5 15.875 16.375 17.625 14.625C19.375 12.875 21.5 12 24 12C26.5 12 28.625 12.875 30.375 14.625C32.125 16.375 33 18.5 33 21C33 22.62 32.595 24.12 31.785 25.5C30.975 26.88 29.88 27.98 28.5 28.8H19.5ZM20.22 26.4H27.78C28.68 25.76 29.375 24.97 29.865 24.03C30.355 23.09 30.6 22.08 30.6 21C30.6 19.16 29.96 17.6 28.68 16.32C27.4 15.04 25.84 14.4 24 14.4C22.16 14.4 20.6 15.04 19.32 16.32C18.04 17.6 17.4 19.16 17.4 21C17.4 22.08 17.645 23.09 18.135 24.03C18.625 24.97 19.32 25.76 20.22 26.4Z" fill="#1F95D3"/>
</svg>
