<svg width="48" height="48" viewBox="0 0 48 48" fill="none" xmlns="http://www.w3.org/2000/svg">
<rect width="48" height="48" rx="8" fill="#E6F2E9"/>
<path d="M29.5846 8.00024H23.3538C20.531 8.00023 18.2952 8.0002 16.5453 8.23641C14.7445 8.4795 13.2869 8.99168 12.1374 10.1458C10.9879 11.2999 10.4777 12.7634 10.2356 14.5715C10.0003 16.3283 10.0004 18.5732 10.0004 21.4073V30.7475C10.0004 33.1605 11.4723 35.2284 13.5639 36.0952C13.4563 34.6402 13.4563 32.5984 13.4564 30.8997V23.0366V22.8842C13.4563 20.8335 13.4562 19.0667 13.6457 17.6517C13.8487 16.1353 14.3067 14.6818 15.4809 13.5028C16.6552 12.3238 18.1029 11.864 19.6133 11.6602C21.0225 11.4699 22.7824 11.47 24.8249 11.4702L24.9765 11.4702H29.5846L29.7363 11.4702C31.7787 11.47 33.5347 11.4699 34.944 11.6602C34.101 9.51672 32.0192 8.00024 29.5846 8.00024Z" fill="url(#paint0_linear_58_2258)"/>
<path d="M15.7614 23.0361C15.7614 18.6741 15.7614 16.4931 17.111 15.138C18.4607 13.783 20.6329 13.783 24.9774 13.783H29.5855C33.93 13.783 36.1022 13.783 37.452 15.138C38.8016 16.4931 38.8016 18.6741 38.8016 23.0361V30.747C38.8016 35.109 38.8016 37.29 37.452 38.645C36.1022 40.0001 33.93 40.0001 29.5855 40.0001H24.9774C20.6329 40.0001 18.4607 40.0001 17.111 38.645C15.7614 37.29 15.7614 35.109 15.7614 30.747V23.0361Z" fill="url(#paint1_linear_58_2258)"/>
<defs>
<linearGradient id="paint0_linear_58_2258" x1="14.3015" y1="13.1219" x2="76.1176" y2="66.4052" gradientUnits="userSpaceOnUse">
<stop stop-color="#41C791"/>
<stop offset="0.620217" stop-color="#0674F0"/>
<stop offset="0.680217" stop-color="#6961B5"/>
<stop offset="0.813" stop-color="#F34660"/>
<stop offset="1" stop-color="#EE078D"/>
</linearGradient>
<linearGradient id="paint1_linear_58_2258" x1="19.7343" y1="18.5623" x2="77.329" y2="67.7033" gradientUnits="userSpaceOnUse">
<stop stop-color="#41C791"/>
<stop offset="0.620217" stop-color="#0674F0"/>
<stop offset="0.680217" stop-color="#6961B5"/>
<stop offset="0.813" stop-color="#F34660"/>
<stop offset="1" stop-color="#EE078D"/>
</linearGradient>
</defs>
</svg>
