<svg width="32" height="32" viewBox="0 0 32 32" fill="none" xmlns="http://www.w3.org/2000/svg">
<path d="M16 24C13.763 24 11.8704 23.6556 10.3222 22.9667C8.77407 22.2778 8 21.437 8 20.4444V11.5556C8 10.5778 8.78148 9.74074 10.3444 9.04444C11.9074 8.34815 13.7926 8 16 8C18.2074 8 20.0926 8.34815 21.6556 9.04444C23.2185 9.74074 24 10.5778 24 11.5556V20.4444C24 21.437 23.2259 22.2778 21.6778 22.9667C20.1296 23.6556 18.237 24 16 24ZM16 13.3556C17.3185 13.3556 18.6444 13.1667 19.9778 12.7889C21.3111 12.4111 22.0593 12.0074 22.2222 11.5778C22.0593 11.1481 21.3148 10.7407 19.9889 10.3556C18.663 9.97037 17.3333 9.77778 16 9.77778C14.6519 9.77778 13.3296 9.96667 12.0333 10.3444C10.737 10.7222 9.98519 11.1333 9.77778 11.5778C9.98519 12.0222 10.737 12.4296 12.0333 12.8C13.3296 13.1704 14.6519 13.3556 16 13.3556ZM16 17.7778C16.6222 17.7778 17.2222 17.7481 17.8 17.6889C18.3778 17.6296 18.9296 17.5444 19.4556 17.4333C19.9815 17.3222 20.4778 17.1852 20.9444 17.0222C21.4111 16.8593 21.837 16.6741 22.2222 16.4667V13.8C21.837 14.0074 21.4111 14.1926 20.9444 14.3556C20.4778 14.5185 19.9815 14.6556 19.4556 14.7667C18.9296 14.8778 18.3778 14.963 17.8 15.0222C17.2222 15.0815 16.6222 15.1111 16 15.1111C15.3778 15.1111 14.7704 15.0815 14.1778 15.0222C13.5852 14.963 13.0259 14.8778 12.5 14.7667C11.9741 14.6556 11.4815 14.5185 11.0222 14.3556C10.563 14.1926 10.1481 14.0074 9.77778 13.8V16.4667C10.1481 16.6741 10.563 16.8593 11.0222 17.0222C11.4815 17.1852 11.9741 17.3222 12.5 17.4333C13.0259 17.5444 13.5852 17.6296 14.1778 17.6889C14.7704 17.7481 15.3778 17.7778 16 17.7778ZM16 22.2222C16.6815 22.2222 17.3741 22.1704 18.0778 22.0667C18.7815 21.963 19.4296 21.8259 20.0222 21.6556C20.6148 21.4852 21.1111 21.2926 21.5111 21.0778C21.9111 20.863 22.1481 20.6444 22.2222 20.4222V18.2444C21.837 18.4519 21.4111 18.637 20.9444 18.8C20.4778 18.963 19.9815 19.1 19.4556 19.2111C18.9296 19.3222 18.3778 19.4074 17.8 19.4667C17.2222 19.5259 16.6222 19.5556 16 19.5556C15.3778 19.5556 14.7704 19.5259 14.1778 19.4667C13.5852 19.4074 13.0259 19.3222 12.5 19.2111C11.9741 19.1 11.4815 18.963 11.0222 18.8C10.563 18.637 10.1481 18.4519 9.77778 18.2444V20.4444C9.85185 20.6667 10.0852 20.8815 10.4778 21.0889C10.8704 21.2963 11.363 21.4852 11.9556 21.6556C12.5481 21.8259 13.2 21.963 13.9111 22.0667C14.6222 22.1704 15.3185 22.2222 16 22.2222Z" fill="url(#paint0_linear_64_2418)"/>
<defs>
<linearGradient id="paint0_linear_64_2418" x1="10.7589" y1="10.9167" x2="46.3365" y2="45.4578" gradientUnits="userSpaceOnUse">
<stop stop-color="#41C791"/>
<stop offset="0.620217" stop-color="#0674F0"/>
<stop offset="0.680217" stop-color="#6961B5"/>
<stop offset="0.813" stop-color="#F34660"/>
<stop offset="1" stop-color="#EE078D"/>
</linearGradient>
</defs>
</svg>
