<svg width="28" height="28" viewBox="0 0 28 28" fill="none" xmlns="http://www.w3.org/2000/svg">
<rect width="28" height="28" rx="14" fill="#A69E70"/>
<path d="M9.33333 18.6667H10.2833L16.8 12.15L15.85 11.2L9.33333 17.7167V18.6667ZM8 20V17.1667L16.8 8.38333C16.9333 8.26111 17.0806 8.16667 17.2417 8.1C17.4028 8.03333 17.5722 8 17.75 8C17.9278 8 18.1 8.03333 18.2667 8.1C18.4333 8.16667 18.5778 8.26667 18.7 8.4L19.6167 9.33333C19.75 9.45556 19.8472 9.6 19.9083 9.76667C19.9694 9.93333 20 10.1 20 10.2667C20 10.4444 19.9694 10.6139 19.9083 10.775C19.8472 10.9361 19.75 11.0833 19.6167 11.2167L10.8333 20H8ZM16.3167 11.6833L15.85 11.2L16.8 12.15L16.3167 11.6833Z" fill="#F5F5F5"/>
</svg>
