<svg width="80" height="80" viewBox="0 0 80 80" fill="none" xmlns="http://www.w3.org/2000/svg">
<path d="M59.6163 15H20.3837C19.2211 15 18.1061 15.4619 17.284 16.284C16.4619 17.1061 16 18.2211 16 19.3837V48.3875C16 49.5502 16.4619 50.6652 17.284 51.4873C18.1061 52.3094 19.2211 52.7713 20.3837 52.7713H31.4051L34.829 62.477C34.9567 62.8561 35.1872 63.1922 35.4949 63.4478C35.8026 63.7034 36.1754 63.8684 36.5715 63.9244C36.9675 63.9803 37.3714 63.925 37.7378 63.7646C38.1043 63.6042 38.4189 63.3451 38.6466 63.0162L45.8935 52.7713H59.6163C60.7789 52.7713 61.8939 52.3094 62.716 51.4873C63.5381 50.6652 64 49.5502 64 48.3875V19.3891C64.0007 18.813 63.8878 18.2424 63.6679 17.7099C63.4479 17.1774 63.1251 16.6935 62.7179 16.2859C62.3108 15.8782 61.8273 15.5548 61.2951 15.3342C60.7629 15.1136 60.1924 15 59.6163 15ZM34.98 40.6446C34.98 40.8405 34.9022 41.0284 34.7636 41.1669C34.6251 41.3055 34.4372 41.3833 34.2413 41.3833H27.7708L30.262 28.6742H34.2467C34.4412 28.6742 34.6277 28.7515 34.7652 28.889C34.9027 29.0265 34.98 29.2131 34.98 29.4075V40.6446ZM50.7841 35.6839V35.8025C51.0901 35.9995 51.3244 36.2898 51.4525 36.6304C51.5805 36.971 51.5954 37.3438 51.495 37.6935C51.3945 38.0433 51.1841 38.3513 50.8948 38.5721C50.6055 38.7928 50.2529 38.9145 49.889 38.9191H49.738C49.8755 39.0456 49.9856 39.1989 50.0617 39.3695C50.1377 39.5401 50.178 39.7245 50.1802 39.9113C50.1656 40.2455 50.04 40.5654 49.8232 40.8203C49.6064 41.0752 49.3108 41.2505 48.9831 41.3186L48.7998 41.3563H48.1582C46.1901 41.3563 41.3534 41.3563 41.3534 41.3563C41.3534 41.3563 40.4583 41.5073 38.5226 40.6823C36.5868 39.8573 35.9506 40.1862 36.0207 37.625C36.0908 35.0638 36.0207 32.1413 36.0207 32.1413C35.965 31.5255 36.0453 30.9049 36.2559 30.3235C36.4664 29.7421 36.8021 29.214 37.2393 28.7767C38.8005 27.2698 39.9958 25.4253 40.7333 23.3846C41.1916 21.8102 41.1701 20.4028 42.5828 19.9876C43.9955 19.5725 44.4269 21.3195 44.4269 21.3195C44.4269 21.3195 45.0523 22.5057 44.2435 24.8621C43.4347 27.2184 42.4696 28.5556 43.7852 28.588C45.1009 28.6203 50.439 28.712 50.439 28.712C50.8407 28.7618 51.2115 28.9529 51.4851 29.2512C51.7607 29.5283 51.9191 29.901 51.9272 30.2918C51.917 30.6365 51.7969 30.9689 51.5845 31.2405C51.372 31.5121 51.0784 31.7087 50.7463 31.8016V31.9634C51.161 32.0644 51.5302 32.3006 51.7955 32.6349C52.0609 32.9691 52.2073 33.3822 52.2116 33.809C52.2159 34.2357 52.0779 34.6517 51.8194 34.9913C51.5609 35.3308 51.1966 35.5745 50.7841 35.6839Z" fill="url(#paint0_linear_2096_1663)"/>
<defs>
<linearGradient id="paint0_linear_2096_1663" x1="24.2768" y1="23.9226" x2="133.029" y2="127.467" gradientUnits="userSpaceOnUse">
<stop stop-color="#41C791"/>
<stop offset="0.620217" stop-color="#0674F0"/>
<stop offset="0.680217" stop-color="#6961B5"/>
<stop offset="0.813" stop-color="#F34660"/>
<stop offset="1" stop-color="#EE078D"/>
</linearGradient>
</defs>
</svg>
