<svg width="22" height="19" viewBox="0 0 22 19" fill="none" xmlns="http://www.w3.org/2000/svg">
<g id="icons8-google">
<mask id="mask0_2125_4097" style="mask-type:luminance" maskUnits="userSpaceOnUse" x="0" y="0" width="22" height="19">
<rect id="Background" x="0.315674" y="0.5" width="20.8421" height="18" fill="white"/>
</mask>
<g mask="url(#mask0_2125_4097)">
<path id="Shape" fill-rule="evenodd" clip-rule="evenodd" d="M19.2522 8.03113H18.5527V8H10.7369V11H15.6448C14.9288 12.7464 13.0048 14 10.7369 14C7.85943 14 5.52642 11.9851 5.52642 9.5C5.52642 7.01488 7.85943 5 10.7369 5C12.0652 5 13.2736 5.43275 14.1937 6.13963L16.65 4.01825C15.099 2.76987 13.0244 2 10.7369 2C5.94109 2 2.05273 5.35813 2.05273 9.5C2.05273 13.6419 5.94109 17 10.7369 17C15.5328 17 19.4212 13.6419 19.4212 9.5C19.4212 8.99713 19.3612 8.50625 19.2522 8.03113Z" fill="#FFC107"/>
<path id="Shape_2" fill-rule="evenodd" clip-rule="evenodd" d="M3.05396 6.00912L5.90715 7.81625C6.67918 6.1655 8.54889 5 10.7369 5C12.0651 5 13.2735 5.43275 14.1936 6.13962L16.65 4.01825C15.099 2.76987 13.0243 2 10.7369 2C7.40127 2 4.50856 3.62637 3.05396 6.00912Z" fill="#FF3D00"/>
<path id="Shape_3" fill-rule="evenodd" clip-rule="evenodd" d="M10.737 17.0003C12.9801 17.0003 15.0183 16.2589 16.5593 15.0533L13.8715 13.089C12.9996 13.6594 11.9159 14.0003 10.737 14.0003C8.47821 14.0003 6.56031 12.7564 5.83778 11.0205L3.00586 12.9049C4.4431 15.3338 7.36186 17.0003 10.737 17.0003Z" fill="#4CAF50"/>
<path id="Shape_4" fill-rule="evenodd" clip-rule="evenodd" d="M19.2521 8.03113H18.5526V8H10.7368V11H15.6447C15.3008 11.8389 14.676 12.5623 13.8701 13.0891C13.8705 13.0888 13.8709 13.0887 13.8714 13.0884L16.5591 15.0526C16.369 15.2019 19.421 13.25 19.421 9.5C19.421 8.99713 19.3611 8.50625 19.2521 8.03113Z" fill="#1976D2"/>
</g>
</g>
</svg>
