<svg width="80" height="80" viewBox="0 0 80 80" fill="none" xmlns="http://www.w3.org/2000/svg">
<rect x="12" y="12" width="56" height="56" rx="28" fill="#E6F2E9"/>
<path opacity="0.99" d="M35.5378 50.49C35.2078 50.4907 34.8809 50.426 34.576 50.2999C34.2711 50.1737 33.9941 49.9884 33.7611 49.7547L26.7044 42.6955C26.2473 42.2223 25.9944 41.5884 26.0001 40.9304C26.0058 40.2724 26.2697 39.643 26.735 39.1777C27.2003 38.7124 27.8297 38.4485 28.4877 38.4428C29.1457 38.4371 29.7796 38.69 30.2528 39.1471L35.5353 44.4321L49.2898 30.6802C49.7649 30.234 50.3949 29.9902 51.0466 30.0003C51.6983 30.0104 52.3205 30.2737 52.7815 30.7344C53.2425 31.1951 53.5062 31.8171 53.5168 32.4687C53.5274 33.1204 53.284 33.7506 52.8382 34.2261L37.3095 49.7547C37.0768 49.9881 36.8002 50.1732 36.4958 50.2994C36.1913 50.4256 35.8674 50.4903 35.5378 50.49Z" fill="#2B964C"/>
</svg>
