<svg width="32" height="32" viewBox="0 0 32 32" fill="none" xmlns="http://www.w3.org/2000/svg">
<path d="M16 28C15.34 28 14.775 27.765 14.305 27.295C13.835 26.825 13.6 26.26 13.6 25.6H18.4C18.4 26.26 18.165 26.825 17.695 27.295C17.225 27.765 16.66 28 16 28ZM11.2 24.4V22H20.8V24.4H11.2ZM11.5 20.8C10.12 19.98 9.025 18.88 8.215 17.5C7.405 16.12 7 14.62 7 13C7 10.5 7.875 8.375 9.625 6.625C11.375 4.875 13.5 4 16 4C18.5 4 20.625 4.875 22.375 6.625C24.125 8.375 25 10.5 25 13C25 14.62 24.595 16.12 23.785 17.5C22.975 18.88 21.88 19.98 20.5 20.8H11.5ZM12.22 18.4H19.78C20.68 17.76 21.375 16.97 21.865 16.03C22.355 15.09 22.6 14.08 22.6 13C22.6 11.16 21.96 9.6 20.68 8.32C19.4 7.04 17.84 6.4 16 6.4C14.16 6.4 12.6 7.04 11.32 8.32C10.04 9.6 9.4 11.16 9.4 13C9.4 14.08 9.645 15.09 10.135 16.03C10.625 16.97 11.32 17.76 12.22 18.4Z" fill="#41C791"/>
</svg>
