<svg width="32" height="32" viewBox="0 0 32 32" fill="none" xmlns="http://www.w3.org/2000/svg">
<path d="M8.66667 24V15.6667L7.06667 16.8889L6 15.4667L15.7778 8L25.5556 15.4667L24.4889 16.8667L22.8889 15.6667V24H8.66667ZM10.4444 22.2222H21.1111V14.3111L15.7778 10.2444L10.4444 14.3111V22.2222ZM12.2222 18.6667C11.9704 18.6667 11.7593 18.5815 11.5889 18.4111C11.4185 18.2407 11.3333 18.0296 11.3333 17.7778C11.3333 17.5259 11.4185 17.3148 11.5889 17.1444C11.7593 16.9741 11.9704 16.8889 12.2222 16.8889C12.4741 16.8889 12.6852 16.9741 12.8556 17.1444C13.0259 17.3148 13.1111 17.5259 13.1111 17.7778C13.1111 18.0296 13.0259 18.2407 12.8556 18.4111C12.6852 18.5815 12.4741 18.6667 12.2222 18.6667ZM15.7778 18.6667C15.5259 18.6667 15.3148 18.5815 15.1444 18.4111C14.9741 18.2407 14.8889 18.0296 14.8889 17.7778C14.8889 17.5259 14.9741 17.3148 15.1444 17.1444C15.3148 16.9741 15.5259 16.8889 15.7778 16.8889C16.0296 16.8889 16.2407 16.9741 16.4111 17.1444C16.5815 17.3148 16.6667 17.5259 16.6667 17.7778C16.6667 18.0296 16.5815 18.2407 16.4111 18.4111C16.2407 18.5815 16.0296 18.6667 15.7778 18.6667ZM19.3333 18.6667C19.0815 18.6667 18.8704 18.5815 18.7 18.4111C18.5296 18.2407 18.4444 18.0296 18.4444 17.7778C18.4444 17.5259 18.5296 17.3148 18.7 17.1444C18.8704 16.9741 19.0815 16.8889 19.3333 16.8889C19.5852 16.8889 19.7963 16.9741 19.9667 17.1444C20.137 17.3148 20.2222 17.5259 20.2222 17.7778C20.2222 18.0296 20.137 18.2407 19.9667 18.4111C19.7963 18.5815 19.5852 18.6667 19.3333 18.6667Z" fill="url(#paint0_linear_64_1754)"/>
<defs>
<linearGradient id="paint0_linear_64_1754" x1="9.37204" y1="10.9167" x2="44.4504" y2="52.5413" gradientUnits="userSpaceOnUse">
<stop stop-color="#41C791"/>
<stop offset="0.620217" stop-color="#0674F0"/>
<stop offset="0.680217" stop-color="#6961B5"/>
<stop offset="0.813" stop-color="#F34660"/>
<stop offset="1" stop-color="#EE078D"/>
</linearGradient>
</defs>
</svg>
