<svg width="32" height="32" viewBox="0 0 32 32" fill="none" xmlns="http://www.w3.org/2000/svg">
<path d="M15 21H11C9.61667 21 8.4375 20.5125 7.4625 19.5375C6.4875 18.5625 6 17.3833 6 16C6 14.6167 6.4875 13.4375 7.4625 12.4625C8.4375 11.4875 9.61667 11 11 11H15V13H11C10.1667 13 9.45833 13.2917 8.875 13.875C8.29167 14.4583 8 15.1667 8 16C8 16.8333 8.29167 17.5417 8.875 18.125C9.45833 18.7083 10.1667 19 11 19H15V21ZM12 17V15H20V17H12ZM17 21V19H21C21.8333 19 22.5417 18.7083 23.125 18.125C23.7083 17.5417 24 16.8333 24 16C24 15.1667 23.7083 14.4583 23.125 13.875C22.5417 13.2917 21.8333 13 21 13H17V11H21C22.3833 11 23.5625 11.4875 24.5375 12.4625C25.5125 13.4375 26 14.6167 26 16C26 17.3833 25.5125 18.5625 24.5375 19.5375C23.5625 20.5125 22.3833 21 21 21H17Z" fill="url(#paint0_linear_64_2419)"/>
<defs>
<linearGradient id="paint0_linear_64_2419" x1="9.44868" y1="12.823" x2="27.5586" y2="47.9877" gradientUnits="userSpaceOnUse">
<stop stop-color="#41C791"/>
<stop offset="0.620217" stop-color="#0674F0"/>
<stop offset="0.680217" stop-color="#6961B5"/>
<stop offset="0.813" stop-color="#F34660"/>
<stop offset="1" stop-color="#EE078D"/>
</linearGradient>
</defs>
</svg>
