<svg width="32" height="32" viewBox="0 0 32 32" fill="none" xmlns="http://www.w3.org/2000/svg">
<path d="M16 16C14.9 16 13.9583 15.6083 13.175 14.825C12.3917 14.0417 12 13.1 12 12C12 10.9 12.3917 9.95833 13.175 9.175C13.9583 8.39167 14.9 8 16 8C17.1 8 18.0417 8.39167 18.825 9.175C19.6083 9.95833 20 10.9 20 12C20 13.1 19.6083 14.0417 18.825 14.825C18.0417 15.6083 17.1 16 16 16ZM8 24V21.2C8 20.6333 8.14583 20.1125 8.4375 19.6375C8.72917 19.1625 9.11667 18.8 9.6 18.55C10.6333 18.0333 11.6833 17.6458 12.75 17.3875C13.8167 17.1292 14.9 17 16 17C17.1 17 18.1833 17.1292 19.25 17.3875C20.3167 17.6458 21.3667 18.0333 22.4 18.55C22.8833 18.8 23.2708 19.1625 23.5625 19.6375C23.8542 20.1125 24 20.6333 24 21.2V24H8Z" fill="url(#paint0_linear_64_2421)"/>
<defs>
<linearGradient id="paint0_linear_64_2421" x1="10.7589" y1="10.9167" x2="46.3365" y2="45.4578" gradientUnits="userSpaceOnUse">
<stop stop-color="#41C791"/>
<stop offset="0.620217" stop-color="#0674F0"/>
<stop offset="0.680217" stop-color="#6961B5"/>
<stop offset="0.813" stop-color="#F34660"/>
<stop offset="1" stop-color="#EE078D"/>
</linearGradient>
</defs>
</svg>
