<svg width="48" height="48" viewBox="0 0 48 48" fill="none" xmlns="http://www.w3.org/2000/svg">
<g clip-path="url(#clip0_121_2047)">
<path d="M37.8555 0H10.1445C4.54185 0 0 4.54176 0 10.1444V37.8554C0 43.4581 4.54185 48 10.1445 48H37.8555C43.4582 48 48 43.4581 48 37.8554V10.1444C48 4.54176 43.4582 0 37.8555 0Z" fill="url(#paint0_linear_121_2047)"/>
<path d="M32 12C29.802 12 28 13.802 28 16C28 16.358 28.036 16.732 28.126 17.062L21.75 20.75C21.2861 20.2075 20.7114 19.7707 20.0645 19.4688C19.4177 19.167 18.7138 19.0071 18 19C16.6752 19.0042 15.4059 19.5324 14.4691 20.4691C13.5324 21.4059 13.0042 22.6752 13 24C13 26.75 15.25 29 18 29C19.496 29 20.832 28.3 21.75 27.25L28.126 30.938C28.0378 31.285 27.9955 31.642 28 32C28 34.198 29.802 36 32 36C34.198 36 36 34.198 36 32C36 29.802 34.198 28 32 28C30.88 28 29.854 28.498 29.124 29.25L22.75 25.562C22.91 25.078 23 24.536 23 24C23 23.464 22.908 22.986 22.75 22.5L29.126 18.75C29.854 19.504 30.878 20 32 20C34.198 20 36 18.198 36 16C36 13.802 34.198 12 32 12ZM32 14C33.116 14 34 14.884 34 16C34 17.116 33.116 18 32 18C30.884 18 30 17.116 30 16C30 14.884 30.884 14 32 14ZM18 21C19.668 21 21 22.332 21 24C21 25.668 19.668 27 18 27C16.332 27 15 25.668 15 24C15 22.332 16.332 21 18 21ZM32 30C33.116 30 34 30.884 34 32C34 33.116 33.116 34 32 34C30.884 34 30 33.116 30 32C30 30.884 30.884 30 32 30Z" fill="white"/>
</g>
<defs>
<linearGradient id="paint0_linear_121_2047" x1="8.27684" y1="8.75024" x2="115.01" y2="112.374" gradientUnits="userSpaceOnUse">
<stop stop-color="#41C791"/>
<stop offset="0.620217" stop-color="#0674F0"/>
<stop offset="0.680217" stop-color="#6961B5"/>
<stop offset="0.813" stop-color="#F34660"/>
<stop offset="1" stop-color="#EE078D"/>
</linearGradient>
<clipPath id="clip0_121_2047">
<rect width="48" height="48" fill="white"/>
</clipPath>
</defs>
</svg>
