<svg width="388" height="300" viewBox="0 0 388 300" fill="none" xmlns="http://www.w3.org/2000/svg">
<g clip-path="url(#clip0_2113_8128)">
<path d="M222.801 63.8975C222.801 63.8975 226.847 47.463 248.026 44.7861C248.026 44.7861 240.773 69.0291 222.801 63.8975Z" fill="#3F9896"/>
<path d="M218.589 70.6504C218.589 70.6504 201.141 47.3026 220.728 16.1924C220.728 16.1924 245.062 52.3422 218.589 70.6504Z" fill="url(#paint0_linear_2113_8128)"/>
<path d="M83.6857 299.998C56.5492 299.334 31.631 285.514 17.9726 263.35C7.04135 245.611 -1.47818 220.048 0.215268 184.007C4.50437 92.7287 87.5815 29.8562 139.5 26.8395C202.836 23.1595 188.491 60.043 258.113 66.0903C290.661 68.9173 331.855 83.9799 357.933 130.718C373.951 159.425 386.829 197.816 355.692 258.308C342.558 283.825 315.133 299.998 285.101 299.998H83.6857V299.998Z" fill="#A1E4C8"/>
<path d="M92.1642 206.648C90.8618 205.844 89.4572 205.273 88.0084 204.938L87.3319 201.317L84.8134 201.324L82.2948 201.33L81.6367 204.954C80.1895 205.296 78.7878 205.874 77.4895 206.685L74.4507 204.602L72.6743 206.388L70.898 208.173L72.9954 211.201C72.1916 212.504 71.6209 213.908 71.2857 215.357L67.665 216.034L67.6714 218.552L67.6778 221.071L71.3019 221.729C71.6443 223.176 72.222 224.578 73.0323 225.876L70.9501 228.915L72.7354 230.691L74.5207 232.468L77.5491 230.37C78.8515 231.174 80.256 231.745 81.7048 232.08L82.3813 235.701L84.8999 235.694L87.4185 235.688L88.0765 232.064C89.5238 231.721 90.9255 231.144 92.2237 230.333L95.2627 232.416L97.0391 230.63L98.8155 228.845L96.7179 225.817C97.5217 224.514 98.0925 223.11 98.4275 221.661L102.048 220.984L102.042 218.466L102.035 215.947L98.4115 215.289C98.0691 213.842 97.4914 212.44 96.6809 211.142L98.7632 208.103L96.9778 206.327L95.1925 204.55L92.1642 206.648ZM91.5548 225.173C87.8742 228.872 81.8917 228.888 78.1925 225.207C74.4934 221.526 74.4782 215.544 78.1588 211.845C81.8394 208.146 87.8219 208.13 91.5211 211.811C95.2202 215.492 95.2354 221.474 91.5548 225.173Z" fill="#128455"/>
<path d="M19.2064 148.84H73.8705C75.6166 148.84 77.032 150.255 77.032 152.002V178.479C77.032 180.225 75.6166 181.64 73.8705 181.64H69.2148L71.3361 187.433L62.958 181.64H19.2064C17.4603 181.64 16.0449 180.225 16.0449 178.479V152.002C16.0449 150.255 17.4603 148.84 19.2064 148.84Z" fill="#E9F4FB"/>
<path d="M21.771 169.495H72.6248C72.9769 169.495 73.2621 169.21 73.2621 168.858C73.2621 168.506 72.9769 168.221 72.6248 168.221H21.771C21.419 168.221 21.1338 168.506 21.1338 168.858C21.1338 169.21 21.419 169.495 21.771 169.495Z" fill="#202028"/>
<path d="M39.5826 155.02H72.6248C72.9768 155.02 73.2621 154.734 73.2621 154.382C73.2621 154.03 72.9768 153.745 72.6248 153.745H39.5826C39.2306 153.745 38.9453 154.03 38.9453 154.382C38.9453 154.734 39.2306 155.02 39.5826 155.02Z" fill="#202028"/>
<path d="M58.3394 176.734H72.6263C72.9783 176.734 73.2635 176.449 73.2635 176.097C73.2635 175.745 72.9783 175.46 72.6263 175.46H58.3394C57.9874 175.46 57.7021 175.745 57.7021 176.097C57.7023 176.449 57.9874 176.734 58.3394 176.734Z" fill="#202028"/>
<path d="M21.771 176.734H53.8694C54.2215 176.734 54.5067 176.449 54.5067 176.097C54.5067 175.745 54.2215 175.46 53.8694 175.46H21.771C21.419 175.46 21.1338 175.745 21.1338 176.097C21.1338 176.449 21.419 176.734 21.771 176.734Z" fill="#202028"/>
<path d="M21.3941 155.019H34.5797C34.9317 155.019 35.2169 154.733 35.2169 154.381C35.2169 154.029 34.9317 153.744 34.5797 153.744H21.3941C21.0421 153.744 20.7568 154.029 20.7568 154.381C20.7568 154.733 21.0419 155.019 21.3941 155.019Z" fill="#202028"/>
<path d="M51.856 162.259H72.6254C72.9774 162.259 73.2626 161.974 73.2626 161.622C73.2626 161.27 72.9774 160.984 72.6254 160.984H51.856C51.504 160.984 51.2188 161.27 51.2188 161.622C51.2187 161.974 51.504 162.259 51.856 162.259Z" fill="#202028"/>
<path d="M21.3941 162.259H47.1985C47.5506 162.259 47.8358 161.974 47.8358 161.622C47.8358 161.27 47.5506 160.984 47.1985 160.984H21.3941C21.0421 160.984 20.7568 161.27 20.7568 161.622C20.7568 161.974 21.0419 162.259 21.3941 162.259Z" fill="#202028"/>
<path d="M26.3665 68.5996H72.7716C74.2539 68.5996 75.4555 69.8013 75.4555 71.2835V93.7603C75.4555 95.2426 74.2539 96.4442 72.7716 96.4442H68.8193L70.6201 101.361L63.5078 96.4442H26.3665C24.8842 96.4442 23.6826 95.2426 23.6826 93.7603V71.2835C23.6826 69.8013 24.8844 68.5996 26.3665 68.5996Z" fill="#292B33"/>
<path d="M28.5438 86.1355H71.7143C72.0131 86.1355 72.2552 85.8935 72.2552 85.5946C72.2552 85.2958 72.0131 85.0537 71.7143 85.0537H28.5438C28.245 85.0537 28.0029 85.2958 28.0029 85.5946C28.0029 85.8935 28.245 86.1355 28.5438 86.1355Z" fill="#E9F4FB"/>
<path d="M43.6642 73.8484H71.714C72.0129 73.8484 72.2549 73.6064 72.2549 73.3075C72.2549 73.0087 72.0129 72.7666 71.714 72.7666H43.6642C43.3654 72.7666 43.1233 73.0088 43.1233 73.3075C43.1233 73.6064 43.3654 73.8484 43.6642 73.8484Z" fill="#E9F4FB"/>
<path d="M59.5868 92.281H71.715C72.0138 92.281 72.2559 92.039 72.2559 91.7401C72.2559 91.4413 72.0138 91.1992 71.715 91.1992H59.5868C59.288 91.1992 59.0459 91.4413 59.0459 91.7401C59.0459 92.039 59.288 92.281 59.5868 92.281Z" fill="#E9F4FB"/>
<path d="M28.5438 92.2801H55.7926C56.0915 92.2801 56.3335 92.038 56.3335 91.7392C56.3335 91.4403 56.0915 91.1982 55.7926 91.1982H28.5438C28.245 91.1982 28.0029 91.4403 28.0029 91.7392C28.0029 92.038 28.245 92.2801 28.5438 92.2801Z" fill="#E9F4FB"/>
<path d="M28.2245 73.8484H39.4178C39.7166 73.8484 39.9587 73.6064 39.9587 73.3075C39.9587 73.0087 39.7166 72.7666 39.4178 72.7666H28.2245C27.9257 72.7666 27.6836 73.0088 27.6836 73.3075C27.6836 73.6064 27.9257 73.8484 28.2245 73.8484Z" fill="#E9F4FB"/>
<path d="M54.0849 79.993H71.7163C72.0151 79.993 72.2572 79.7509 72.2572 79.452C72.2572 79.1532 72.0151 78.9111 71.7163 78.9111H54.0849C53.786 78.9111 53.5439 79.1532 53.5439 79.452C53.5438 79.7507 53.786 79.993 54.0849 79.993Z" fill="#E9F4FB"/>
<path d="M28.2245 79.992H50.1302C50.4291 79.992 50.6711 79.7499 50.6711 79.4511C50.6711 79.1522 50.4289 78.9102 50.1302 78.9102H28.2245C27.9257 78.9102 27.6836 79.1522 27.6836 79.4511C27.6836 79.7497 27.9257 79.992 28.2245 79.992Z" fill="#E9F4FB"/>
<path d="M287.567 55.6309H246.5C245.188 55.6309 244.125 56.6943 244.125 58.006V77.897C244.125 79.2089 245.188 80.2723 246.5 80.2723H249.998L248.404 84.6239L254.698 80.2723H287.567C288.879 80.2723 289.942 79.2089 289.942 77.897V58.006C289.942 56.6943 288.879 55.6309 287.567 55.6309Z" fill="#292B33"/>
<path d="M285.64 71.1488H247.436C247.171 71.1488 246.957 70.9345 246.957 70.67C246.957 70.4056 247.171 70.1914 247.436 70.1914H285.64C285.904 70.1914 286.119 70.4056 286.119 70.67C286.119 70.9345 285.904 71.1488 285.64 71.1488Z" fill="#E9F4FB"/>
<path d="M272.258 60.2721H247.435C247.17 60.2721 246.956 60.0577 246.956 59.7933C246.956 59.5288 247.17 59.3145 247.435 59.3145H272.258C272.522 59.3145 272.737 59.5288 272.737 59.7933C272.737 60.0579 272.522 60.2721 272.258 60.2721Z" fill="#E9F4FB"/>
<path d="M258.166 76.5875H247.433C247.168 76.5875 246.954 76.3733 246.954 76.1087C246.954 75.8441 247.168 75.6299 247.433 75.6299H258.166C258.43 75.6299 258.645 75.8441 258.645 76.1087C258.645 76.3733 258.43 76.5875 258.166 76.5875Z" fill="#E9F4FB"/>
<path d="M285.637 76.5875H261.523C261.259 76.5875 261.044 76.3733 261.044 76.1087C261.044 75.8441 261.258 75.6299 261.523 75.6299H285.637C285.902 75.6299 286.116 75.8441 286.116 76.1087C286.116 76.3733 285.902 76.5875 285.637 76.5875Z" fill="#E9F4FB"/>
<path d="M285.921 60.273H276.016C275.751 60.273 275.537 60.0587 275.537 59.7942C275.537 59.5298 275.751 59.3154 276.016 59.3154H285.921C286.186 59.3154 286.4 59.5298 286.4 59.7942C286.4 60.0588 286.186 60.273 285.921 60.273Z" fill="#E9F4FB"/>
<path d="M263.036 65.7113H247.433C247.168 65.7113 246.954 65.4971 246.954 65.2327C246.954 64.9683 247.168 64.7539 247.433 64.7539H263.036C263.301 64.7539 263.515 64.9681 263.515 65.2327C263.515 65.4971 263.301 65.7113 263.036 65.7113Z" fill="#E9F4FB"/>
<path d="M285.92 65.7113H266.534C266.27 65.7113 266.056 65.4971 266.056 65.2327C266.056 64.9683 266.27 64.7539 266.534 64.7539H285.92C286.185 64.7539 286.399 64.9681 286.399 65.2327C286.399 65.4971 286.185 65.7113 285.92 65.7113Z" fill="#E9F4FB"/>
<path opacity="0.5" d="M124.24 271.947C147.694 271.947 166.708 270.643 166.708 269.034C166.708 267.425 147.694 266.121 124.24 266.121C100.785 266.121 81.7717 267.425 81.7717 269.034C81.7717 270.643 100.785 271.947 124.24 271.947Z" fill="#128455"/>
<path opacity="0.5" d="M258.114 271.947C281.568 271.947 300.582 270.643 300.582 269.034C300.582 267.425 281.568 266.121 258.114 266.121C234.659 266.121 215.646 267.425 215.646 269.034C215.646 270.643 234.659 271.947 258.114 271.947Z" fill="#128455"/>
<path d="M153.964 105.912L93.2712 99.2401C88.995 98.7996 85.491 102.258 85.491 106.452V246.226C85.491 250.42 88.9952 253.844 93.2712 253.404L153.964 246.766C157.534 246.398 160.399 243.043 160.399 239.266V113.411C160.399 109.635 157.534 106.28 153.964 105.912ZM157.764 238.294C157.764 240.354 156.197 242.174 154.257 242.362L92.9257 248.287C90.6057 248.511 90.4552 246.855 90.4552 244.586V106.828C90.4552 104.296 90.8235 102.454 93.4087 102.71L153.849 108.689C156.016 108.904 157.764 110.938 157.764 113.237L157.764 238.294Z" fill="url(#paint1_linear_2113_8128)"/>
<path d="M161.174 111.793C161.173 111.752 161.171 111.71 161.169 111.669C161.092 110.271 160.048 109.056 158.74 108.844C158.701 108.837 158.661 108.831 158.622 108.826C158.609 108.824 158.597 108.821 158.584 108.82L95.2456 102.555C95.2299 102.553 95.2156 102.553 95.1998 102.552C95.1527 102.549 95.1071 102.546 95.0599 102.545C93.489 102.48 92.2281 103.58 92.1352 105.102C92.1309 105.148 92.1295 105.192 92.1279 105.238C92.1266 105.254 92.125 105.268 92.125 105.284V246.043C92.125 247.508 93.3474 248.575 94.8469 248.43L115.037 246.48L115.243 246.46L115.293 246.455L130.272 245.009L130.361 245L130.493 244.987L130.622 244.974L145.246 243.562L145.328 243.553L145.501 243.538L158.916 242.241C160.166 242.12 161.176 240.946 161.176 239.616V111.834C161.176 111.82 161.174 111.807 161.174 111.793ZM92.1752 112.724V108.473L96.7066 108.883C96.838 108.953 96.9808 108.997 97.1307 109.011C97.2821 109.025 97.4262 109.006 97.5548 108.96L99.9011 109.173C100.028 109.241 100.171 109.287 100.322 109.3C100.472 109.314 100.615 109.294 100.744 109.25L103.069 109.46C103.194 109.528 103.337 109.572 103.486 109.587C103.636 109.6 103.777 109.581 103.904 109.535L149.636 113.679V113.762L156.597 114.392V114.311L161.153 114.723V118.583L92.1752 112.724Z" fill="#D8ECFE"/>
<path d="M154.85 242.634L154.72 242.646C154.735 242.703 154.751 242.761 154.767 242.817C154.861 242.797 154.909 242.787 154.909 242.787C154.889 242.739 154.87 242.687 154.85 242.634Z" fill="#49263E"/>
<path d="M158.545 108.818L95.2917 102.56C93.5463 102.387 92.125 103.627 92.125 105.33V112.721L92.1742 112.725L161.153 118.584L161.176 118.586V111.876C161.176 110.33 160 108.962 158.545 108.818Z" fill="url(#paint2_linear_2113_8128)"/>
<path d="M98.1655 108.095C98.1655 108.505 97.9157 108.835 97.5558 108.96C97.4271 109.006 97.2828 109.025 97.131 109.011C96.9808 108.998 96.8375 108.952 96.7073 108.883C96.3461 108.694 96.0938 108.316 96.0938 107.904C96.0938 107.345 96.5598 106.935 97.131 106.988C97.7029 107.041 98.1655 107.537 98.1655 108.095Z" fill="#E9F4FB"/>
<path d="M101.347 108.386C101.347 108.795 101.099 109.124 100.742 109.248C100.615 109.294 100.472 109.313 100.321 109.299C100.171 109.286 100.028 109.241 99.8999 109.172C99.5419 108.982 99.293 108.607 99.293 108.198C99.293 107.64 99.7535 107.232 100.321 107.285C100.889 107.338 101.347 107.831 101.347 108.386Z" fill="#E9F4FB"/>
<path d="M104.503 108.676C104.503 109.083 104.258 109.41 103.904 109.535C103.777 109.58 103.635 109.599 103.486 109.586C103.337 109.572 103.195 109.527 103.068 109.459C102.714 109.27 102.467 108.897 102.467 108.489C102.467 107.934 102.923 107.527 103.487 107.58C104.049 107.632 104.503 108.123 104.503 108.676Z" fill="#E9F4FB"/>
<path d="M149.272 111.788V114.394L156.264 114.667V113.858L156.628 113.872V112.72L156.264 112.706V112.035L149.272 111.788ZM156.022 114.443L149.51 114.191V112.01L156.022 112.242V114.443Z" fill="#E9F4FB"/>
<path d="M149.904 113.855L150.59 113.882V112.389L149.904 112.364V113.855Z" fill="#E9F4FB"/>
<path d="M151.054 113.899L151.742 113.925V112.43L151.054 112.405V113.899Z" fill="#E9F4FB"/>
<path d="M152.239 113.943L152.93 113.97V112.472L152.239 112.447V113.943Z" fill="#E9F4FB"/>
<path d="M86.3128 134.666L84.667 134.575V121.471L86.3128 121.591V134.666Z" fill="url(#paint3_linear_2113_8128)"/>
<path d="M86.3128 150.443L84.667 150.386V137.282L86.3128 137.368V150.443Z" fill="url(#paint4_linear_2113_8128)"/>
<path d="M88.9033 106.452V246.227C88.9033 250.421 92.4075 253.458 96.6831 253.017L112.026 251.438L112.514 251.387L156.506 246.856L156.576 246.849L157.376 246.766C160.946 246.398 163.811 243.044 163.811 239.267V113.411C163.811 109.636 160.946 106.28 157.376 105.913L96.6831 99.6607C92.4075 99.2197 88.9033 102.257 88.9033 106.452ZM92.1264 106.829C92.1264 104.296 94.2352 102.455 96.8205 102.71L157.261 108.69C159.429 108.904 161.176 110.938 161.176 113.237V238.295C161.176 240.354 159.61 242.174 157.669 242.361L156.504 242.474L156.432 242.482L155.104 242.609L154.85 242.634C154.87 242.687 154.89 242.739 154.91 242.787C154.91 242.787 154.861 242.797 154.767 242.817C154.751 242.761 154.735 242.703 154.72 242.646L105.981 247.356L105.091 247.442L98.3758 248.091L96.3378 248.288C94.0174 248.512 92.1266 246.855 92.1266 244.587V106.829H92.1264Z" fill="url(#paint5_linear_2113_8128)"/>
<path d="M154.969 242.917L154.89 242.63L154.661 242.652L154.695 242.927L154.969 242.917Z" fill="#49263E"/>
<path d="M156.82 242.443L105.98 247.356V252.06L157.764 246.713L156.82 242.443Z" fill="url(#paint6_linear_2113_8128)"/>
<path d="M67.3664 254.123C67.8035 253.046 68.053 251.921 68.1203 250.794L70.7466 249.828L70.4226 247.943L70.0986 246.057L67.3008 246.023C66.8611 244.983 66.2507 244.006 65.479 243.136L66.6536 240.596L65.0912 239.492L63.5289 238.387L61.5263 240.342C60.4489 239.905 59.3246 239.655 58.1968 239.588L57.2315 236.962L55.3459 237.286L53.4603 237.61L53.4265 240.408C52.386 240.848 51.4093 241.458 50.5394 242.229L47.9994 241.055L46.895 242.617L45.7906 244.18L47.7454 246.182C47.3084 247.26 47.0588 248.384 46.9915 249.512L44.3652 250.477L44.689 252.363L45.0128 254.248L47.8108 254.282C48.2505 255.323 48.861 256.299 49.6324 257.169L48.4579 259.709L50.0202 260.814L51.5826 261.918L53.5852 259.963C54.6625 260.4 55.7868 260.65 56.9146 260.717L57.8801 263.343L59.7657 263.019L61.6514 262.696L61.6851 259.898C62.7256 259.458 63.7023 258.847 64.5722 258.076L67.1123 259.25L68.2166 257.688L69.321 256.126L67.3664 254.123ZM53.4129 256.014C50.1757 253.726 49.4063 249.247 51.6946 246.009C53.9828 242.772 58.4618 242.003 61.699 244.291C64.9362 246.579 65.7054 251.058 63.4174 254.295C61.1292 257.533 56.6502 258.302 53.4129 256.014Z" fill="#128455"/>
<path d="M151.313 40.3729C151.683 27.4573 141.513 16.6877 128.599 16.3183C115.684 15.949 104.915 26.1196 104.546 39.0353C104.363 45.4416 106.773 51.319 110.825 55.6622L110.824 55.6623C110.824 55.6623 117.684 63.4333 119.838 71.751C119.838 71.751 123.884 73.2556 126.965 73.4209C130.051 73.4319 134.177 72.1612 134.177 72.1612C136.802 63.9802 144.095 56.6141 144.095 56.6141L144.095 56.6139C148.388 52.5094 151.13 46.7792 151.313 40.3729Z" fill="#FECC86"/>
<path d="M126.61 85.6998C124.602 85.6424 123.022 83.9685 123.079 81.9609L130.348 82.1688C130.291 84.1765 128.617 85.7573 126.61 85.6998Z" fill="#166894"/>
<path d="M126.686 83.0577C122.381 82.9345 118.99 79.3448 119.114 75.0395L119.261 69.8682L134.852 70.3141L134.704 75.4853C134.581 79.7906 130.991 83.1807 126.686 83.0577Z" fill="#166894"/>
<g opacity="0.3">
<path d="M151.315 40.3763C151.452 35.5913 150.142 31.1013 147.782 27.3252C140.461 43.9825 129.229 55.0057 113.392 58.9524C115.296 61.6047 117.807 65.5886 119.272 69.872L134.852 70.3176V70.3184C137.869 62.9077 144.097 56.6172 144.097 56.6172L144.096 56.617C148.389 52.5127 151.132 46.7826 151.315 40.3763Z" fill="#FECC86"/>
</g>
<path d="M130.879 70.2943L130.215 70.0923C130.239 70.013 132.649 62.0564 134.397 53.8863C137.429 39.7101 136.006 36.6444 134.888 36.0787C133.745 35.5004 132.831 35.572 132.172 36.2918C132.124 36.3443 132.077 36.3995 132.033 36.4574C133.64 37.4681 133.993 38.9603 134.07 39.5626C134.282 41.2246 133.495 42.8551 132.315 43.1974C132.03 43.2802 131.484 43.3106 131.033 42.5851C130.318 41.4329 130.165 38.5992 131.056 36.7378C130.262 36.386 129.288 36.1829 128.167 36.1509L127.492 36.1317C126.372 36.0997 125.388 36.2466 124.574 36.5523C125.357 38.4615 125.043 41.282 124.263 42.3914C123.772 43.0897 123.229 43.0287 122.948 42.9292C121.79 42.5201 121.097 40.8473 121.404 39.2001C121.515 38.6033 121.953 37.1337 123.615 36.2165C123.574 36.1563 123.531 36.0985 123.486 36.0434C122.869 35.2871 121.96 35.1631 120.786 35.6752C119.638 36.1761 118.043 39.1555 120.259 53.482C121.537 61.7386 123.488 69.82 123.508 69.9007L122.833 70.0643C122.814 69.9834 120.856 61.8773 119.574 53.5919C117.804 42.1543 118.11 36.0856 120.509 35.0392C122.371 34.2275 123.448 34.8988 124.024 35.6045C124.105 35.7036 124.18 35.8087 124.25 35.9195C125.078 35.5949 126.143 35.3988 127.512 35.4378L128.187 35.4571C129.556 35.4963 130.608 35.7532 131.416 36.1244C131.492 36.018 131.573 35.9173 131.66 35.8228C132.275 35.1508 133.389 34.5425 135.201 35.4593C137.537 36.6411 137.495 42.7174 135.074 54.0351C133.321 62.2336 130.903 70.2147 130.879 70.2943ZM123.942 36.8403C122.939 37.3881 122.289 38.2356 122.086 39.3273C121.818 40.7649 122.435 42.012 123.179 42.2749C123.248 42.2993 123.433 42.3651 123.695 41.9921C124.363 41.0422 124.605 38.4897 123.942 36.8403ZM131.671 37.0614C130.914 38.6702 131.01 41.2323 131.623 42.2187C131.864 42.6059 132.051 42.5509 132.122 42.5306C132.879 42.3107 133.566 41.1009 133.381 39.6504C133.241 38.5489 132.64 37.6656 131.671 37.0614Z" fill="#F99247"/>
<path d="M119.141 70.031C118.969 69.4925 118.891 69.2949 118.719 68.862L118.625 68.6254C115.901 61.7235 110.744 55.8383 110.692 55.7798L110.676 55.7614C106.432 51.2006 104.193 45.2609 104.371 39.033C104.743 26.0423 115.613 15.776 128.602 16.1475C136.577 16.3756 143.836 20.5754 148.019 27.3819L147.724 27.5637C143.602 20.8572 136.45 16.7192 128.592 16.4945C115.794 16.1284 105.084 26.2436 104.718 39.043C104.542 45.189 106.756 51.0499 110.95 55.5465L111.17 55.7819L111.153 55.7848C112.139 56.9521 116.509 62.3203 118.948 68.4983L119.041 68.7342C119.216 69.1749 119.296 69.3761 119.471 69.9263L119.141 70.031Z" fill="#21111D"/>
<path d="M111.906 28.4412L111.576 28.3351C111.595 28.2776 113.488 22.571 119.367 20.5732L119.479 20.9019C113.769 22.842 111.924 28.3853 111.906 28.4412Z" fill="#21111D"/>
<path d="M112.92 30.5565L112.59 30.4503C112.608 30.3929 114.502 24.6863 120.381 22.6885L120.492 23.0171C114.783 24.9574 112.938 30.5007 112.92 30.5565Z" fill="#21111D"/>
<path d="M127.532 83.26L125.832 83.2113C121.907 83.0991 118.805 79.8137 118.917 75.8882L119.094 69.6943L134.858 70.1453L134.848 70.4923L119.431 70.0513L119.264 75.8983C119.157 79.6327 122.108 82.7579 125.842 82.8646L127.542 82.9131C129.33 82.9642 131.036 82.322 132.346 81.1046L132.582 81.3589C131.205 82.6386 129.411 83.3137 127.532 83.26Z" fill="#21111D"/>
<path d="M126.703 85.8776C123.325 85.781 122.931 82.4892 122.927 82.4555L123.272 82.418C123.286 82.5444 123.652 85.5151 126.826 85.5325L126.824 85.8797C126.783 85.8795 126.743 85.8788 126.703 85.8776Z" fill="#21111D"/>
<path d="M143.591 53.2575L143.393 52.973C146.544 50.7713 147.139 46.962 147.145 46.9238L147.488 46.9742C147.483 47.0138 146.869 50.9679 143.591 53.2575Z" fill="#21111D"/>
<path d="M142.956 51.5713L142.757 51.2867C145.054 49.682 145.489 46.9038 145.493 46.876L145.836 46.9264C145.819 47.0461 145.379 49.8787 142.956 51.5713Z" fill="#21111D"/>
<path d="M118.457 72.9675L118.463 72.6205C118.595 72.6227 131.745 72.8283 135.953 71.3955L136.065 71.7239C131.8 73.1764 119 72.9766 118.457 72.9675Z" fill="#21111D"/>
<path d="M118.372 75.8951L118.376 75.5479C118.519 75.5493 132.793 75.6745 135.5 74.3223L135.655 74.6328C132.874 76.0224 118.963 75.901 118.372 75.8951Z" fill="#21111D"/>
<path d="M119.003 78.922L119.01 78.575C119.139 78.5774 131.944 78.8088 135.423 77.1348L135.574 77.4475C132.02 79.1573 119.533 78.9325 119.003 78.922Z" fill="#21111D"/>
<path d="M98.6908 35.1868C98.676 35.1863 98.6612 35.1853 98.6464 35.1837L90.3914 34.2428C90.1057 34.2103 89.9004 33.9522 89.9331 33.6666C89.9655 33.381 90.2237 33.1767 90.5093 33.2083L98.7642 34.1492C99.05 34.1818 99.2551 34.4398 99.2225 34.7254C99.1914 34.996 98.9581 35.1946 98.6908 35.1868Z" fill="#F99247"/>
<path d="M103.348 22.1218C103.247 22.1188 103.146 22.0865 103.057 22.0223L96.3375 17.1361C96.1049 16.9669 96.0536 16.6412 96.2226 16.4088C96.3915 16.1764 96.7169 16.1248 96.9498 16.2939L103.67 21.1802C103.902 21.3493 103.953 21.6748 103.784 21.9074C103.68 22.0519 103.514 22.1264 103.348 22.1218Z" fill="#F99247"/>
<path d="M116.006 13.02C115.801 13.0141 115.61 12.886 115.533 12.6816L112.628 4.89718C112.527 4.62793 112.664 4.32806 112.934 4.22741C113.202 4.12676 113.503 4.26354 113.603 4.53313L116.509 12.3175C116.609 12.5868 116.472 12.8867 116.203 12.9873C116.138 13.0114 116.072 13.0219 116.006 13.02Z" fill="#F99247"/>
<path d="M156.922 38.3534C156.65 38.3456 156.428 38.128 156.417 37.8524C156.407 37.5651 156.631 37.3233 156.918 37.3127L165.221 37.0023C165.506 36.9918 165.749 37.2158 165.76 37.5031C165.771 37.7904 165.547 38.032 165.259 38.0428L156.957 38.3532C156.945 38.3536 156.934 38.3536 156.922 38.3534Z" fill="#F99247"/>
<path d="M153.27 24.9725C153.1 24.9676 152.937 24.8802 152.841 24.7252C152.69 24.4806 152.766 24.1597 153.011 24.0088L160.083 19.6478C160.328 19.4969 160.649 19.5731 160.8 19.8176C160.95 20.0623 160.874 20.3831 160.63 20.534L153.557 24.895C153.468 24.9504 153.368 24.9754 153.27 24.9725Z" fill="#F99247"/>
<path d="M142.98 13.7606C142.912 13.7587 142.843 13.743 142.777 13.7124C142.516 13.5916 142.402 13.2823 142.523 13.0213L146.012 5.48052C146.133 5.2197 146.443 5.10649 146.703 5.22675C146.964 5.34753 147.078 5.65687 146.957 5.91786L143.468 13.4586C143.378 13.6536 143.182 13.7664 142.98 13.7606Z" fill="#F99247"/>
<path d="M129.757 9.34214C129.754 9.34214 129.752 9.34196 129.749 9.34179C129.462 9.32906 129.239 9.08596 129.251 8.79882L129.617 0.497771C129.629 0.213207 129.868 -0.00787125 130.152 0.000214911C130.155 0.000214911 130.157 0.000386768 130.16 0.000558814C130.447 0.0132902 130.67 0.25622 130.657 0.543537L130.292 8.84458C130.279 9.12914 130.04 9.35022 129.757 9.34214Z" fill="#F99247"/>
<g opacity="0.5">
<path d="M143.949 28.8791C143.094 30.1261 140.285 29.6857 137.674 27.8954C135.063 26.1051 133.639 23.6427 134.494 22.3958C135.349 21.1488 138.159 21.589 140.77 23.3795C143.381 25.1698 144.804 27.6321 143.949 28.8791Z" fill="#F3FFFE"/>
</g>
<path d="M192.835 70.9092C185.275 70.9092 179.146 77.0383 179.146 84.5989C179.146 92.1594 185.275 98.2886 192.835 98.2886C200.396 98.2886 206.525 92.1594 206.525 84.5989C206.525 77.0383 200.396 70.9092 192.835 70.9092ZM192.835 97.2391C185.854 97.2391 180.195 91.5798 180.195 84.5989C180.195 77.6178 185.854 71.9587 192.835 71.9587C199.816 71.9587 205.475 77.6179 205.475 84.5989C205.476 91.5798 199.816 97.2391 192.835 97.2391Z" fill="#343541"/>
<path d="M194.278 90.3067C193.844 90.8956 192.964 90.8968 192.528 90.3089L185.012 80.1692C184.265 79.1608 184.477 77.7373 185.485 76.99C186.493 76.2426 187.917 76.4541 188.664 77.4626L193.395 83.845L202.88 70.9809C203.625 69.9705 205.047 69.7553 206.058 70.5004C207.068 71.2454 207.283 72.6682 206.538 73.6784L194.278 90.3067Z" fill="url(#paint7_linear_2113_8128)"/>
<path d="M246.468 264.605L256.675 264.743L256.833 254.055L246.667 252.663L246.468 264.605Z" fill="#FE9F73"/>
<path d="M278.851 261.817L289.066 259.785L286.931 249.305L276.488 250.102L278.851 261.817Z" fill="#FE9F73"/>
<path d="M264.266 172.085C263.889 183.122 262.246 226.297 258.774 254.545C258.545 256.407 256.944 257.812 255.042 257.808C252.936 257.803 250.006 257.556 246.759 256.58C245.19 256.108 244.1 254.702 244.073 253.085L242.633 167.135C242.629 166.926 242.643 166.718 242.676 166.511L242.742 166.087C243.106 163.747 245.569 162.337 247.811 163.185L261.853 168.498C263.351 169.065 264.32 170.503 264.266 172.085Z" fill="#102E5B"/>
<path d="M277.06 167.102C277.06 167.102 277.256 189.03 280.403 213.214C282.151 226.64 287.137 240.583 287.946 252.28C288.054 253.83 286.995 255.218 285.456 255.556C283.278 256.034 279.919 256.485 275.993 256.032C274.662 255.878 273.568 254.919 273.264 253.632L262.307 216.626L255.662 179.208L248.545 158.861L277.06 167.102Z" fill="#133671"/>
<path d="M272.867 252.448C272.882 252.448 272.897 252.446 272.912 252.442C272.997 252.418 273.046 252.329 273.021 252.245L262.463 216.587L257.51 188.694C257.495 188.607 257.411 188.551 257.324 188.565C257.236 188.58 257.178 188.662 257.193 188.748L262.149 216.66L262.152 216.668L272.712 252.334C272.733 252.403 272.797 252.448 272.867 252.448Z" fill="black"/>
<path d="M283.896 230.886C283.908 230.886 283.92 230.885 283.933 230.882C284.02 230.862 284.074 230.777 284.054 230.691C282.847 225.542 281.099 215.424 280.165 209.851C280.137 209.69 280.119 209.58 280.101 209.506C280.101 209.505 280.101 209.505 280.101 209.504C280.1 209.432 280.092 209.329 280.079 209.182L277.651 180.224C277.643 180.137 277.565 180.07 277.476 180.079C277.387 180.086 277.321 180.163 277.329 180.251C277.353 180.541 279.758 209.182 279.784 209.531C279.784 209.535 279.785 209.538 279.785 209.541L279.803 209.697L279.811 209.696C279.821 209.751 279.832 209.82 279.846 209.903C280.781 215.479 282.53 225.605 283.739 230.763C283.756 230.836 283.823 230.886 283.896 230.886Z" fill="black"/>
<path d="M244.022 250.332C244.023 250.332 244.024 250.332 244.024 250.332C244.114 250.331 244.185 250.258 244.183 250.17L243.015 180.504C243.014 180.416 242.946 180.343 242.851 180.347C242.762 180.348 242.691 180.421 242.692 180.509L243.86 250.175C243.862 250.263 243.934 250.332 244.022 250.332Z" fill="black"/>
<path d="M256.906 266.029L247.955 266.032L244.325 262.136L237.688 266.035L236.258 266.035C235.766 266.035 235.314 266.364 235.221 266.841C235.097 267.483 235.593 268.044 236.221 268.044L257.034 268.037C257.187 268.037 257.311 267.915 257.311 267.764L257.311 266.428C257.311 266.208 257.129 266.029 256.906 266.029Z" fill="#EF3A4C"/>
<path d="M256.829 266.038L256.828 262.415C256.828 262.415 255.32 260.415 253.025 261.437C253.025 261.437 249.554 263.866 246.492 260.929L238.894 264.254C238.894 264.254 236.81 264.942 236.246 266.044L256.829 266.038Z" fill="#49263E"/>
<path d="M256.904 262.422H256.752V266.026H256.904V262.422Z" fill="black"/>
<path d="M249.912 262.461C249.621 262.461 249.446 262.436 249.44 262.435L249.463 262.287C249.481 262.289 251.275 262.537 252.98 261.379L253.067 261.503C251.845 262.332 250.577 262.46 249.912 262.461Z" fill="black"/>
<path d="M254.974 265.368L254.889 265.243L255.859 264.598L255.945 264.722L254.974 265.368Z" fill="black"/>
<path d="M254.28 265.182L254.195 265.058L255.166 264.412L255.251 264.537L254.28 265.182Z" fill="black"/>
<path d="M235.514 267.873C235.268 267.667 235.127 267.367 235.127 267.05C235.127 266.455 235.618 265.97 236.222 265.97L256.801 265.964C257.125 265.964 257.388 266.223 257.388 266.542L257.388 267.544H257.236L257.236 266.542C257.236 266.306 257.04 266.114 256.801 266.114L236.222 266.12C235.702 266.12 235.279 266.537 235.279 267.05C235.279 267.323 235.401 267.581 235.612 267.758L235.514 267.873Z" fill="black"/>
<path d="M236.292 266.076L236.154 266.012C236.171 265.977 236.588 265.134 238.143 264.48C239.672 263.837 246.395 260.895 246.462 260.865L246.524 261.003C246.456 261.032 239.733 263.974 238.203 264.618C236.707 265.248 236.296 266.068 236.292 266.076Z" fill="black"/>
<path d="M289.56 260.418L280.959 262.862L276.377 260.107L271.093 265.664L269.72 266.054C269.246 266.189 268.905 266.628 268.949 267.111C269.009 267.762 269.643 268.166 270.248 267.995L290.247 262.313C290.394 262.272 290.479 262.12 290.436 261.975L290.061 260.691C289.999 260.479 289.775 260.357 289.56 260.418Z" fill="#EF3A4C"/>
<path d="M289.489 260.452L288.472 256.972C288.472 256.972 286.461 255.461 284.542 257.069C284.542 257.069 281.889 260.349 278.122 258.361L271.753 263.63C271.753 263.63 269.944 264.858 269.711 266.071L289.489 260.452Z" fill="#49263E"/>
<path d="M281.835 258.895C281.555 258.974 281.38 258.998 281.374 258.999L281.354 258.85C281.372 258.848 283.166 258.596 284.48 257.019L284.598 257.114C283.656 258.244 282.474 258.713 281.835 258.895Z" fill="black"/>
<path d="M269.519 268.021C269.225 267.891 269.005 267.641 268.916 267.336C268.749 266.764 269.085 266.164 269.665 266L289.44 260.382C289.751 260.294 290.077 260.471 290.166 260.778L290.447 261.74L290.301 261.782L290.02 260.82C289.953 260.593 289.712 260.461 289.482 260.526L269.707 266.144C269.208 266.286 268.918 266.802 269.062 267.294C269.139 267.557 269.328 267.772 269.581 267.884L269.519 268.021Z" fill="black"/>
<path d="M269.763 266.086L269.612 266.062C269.619 266.023 269.783 265.1 271.094 264.047C272.382 263.012 278.017 258.351 278.074 258.305L278.172 258.42C278.115 258.467 272.479 263.128 271.19 264.163C269.929 265.176 269.764 266.077 269.763 266.086Z" fill="black"/>
<path d="M214.364 148.886C214.422 148.414 214.358 147.843 214.134 147.663L210.972 143.575C210.629 143.299 210.127 143.354 209.851 143.698C209.644 143.955 209.623 144.302 209.771 144.576C210.067 145.127 210.287 145.716 210.494 146.306L210.99 147.726C210.627 147.767 208.824 148.439 207.591 148.491V151.663L207.414 151.636C207.486 152.308 207.558 153.013 207.595 153.646C207.637 154.373 207.435 155.004 208.029 155.378C208.372 155.595 210.172 155.593 210.812 155.545L215.446 155.501C215.327 154.232 215.231 153.513 214.364 148.886Z" fill="#FE9F73"/>
<path d="M254.335 138.335C254.335 138.335 249.196 149.473 246.895 151.661C244.595 153.848 217.709 155.571 217.709 155.571L216.998 147.285L238.632 142.336L244.305 131.607L254.335 138.335Z" fill="#FE9F73"/>
<path d="M242.695 145.665C242.641 145.659 242.587 145.64 242.54 145.606L238.43 142.641C238.286 142.538 238.254 142.338 238.357 142.194C238.461 142.051 238.661 142.019 238.804 142.122L242.914 145.087C243.058 145.19 243.09 145.39 242.986 145.534C242.917 145.629 242.805 145.675 242.695 145.665Z" fill="#F07162"/>
<path d="M206.287 151.143C206.404 151.669 206.85 151.996 206.97 151.97L210.972 151.088C211.422 150.989 211.74 150.563 211.67 150.107C211.594 149.608 211.114 149.286 210.629 149.393L206.524 150.297C206.524 150.297 206.169 150.616 206.287 151.143Z" fill="#FE9F73"/>
<path d="M206.665 152.805C206.773 153.333 207.212 153.669 207.333 153.645L211.351 152.84C211.803 152.749 212.129 152.329 212.068 151.873C212.001 151.373 211.528 151.041 211.041 151.138L206.919 151.964C206.919 151.964 206.558 152.276 206.665 152.805Z" fill="#FE9F73"/>
<path d="M207.164 154.318C207.259 154.812 207.664 155.129 207.777 155.108L211.529 154.402C211.95 154.323 212.259 153.935 212.207 153.509C212.15 153.043 211.713 152.728 211.258 152.814L207.41 153.538C207.41 153.538 207.07 153.825 207.164 154.318Z" fill="#FE9F73"/>
<path d="M206.97 152.117C206.895 152.117 206.828 152.065 206.811 151.989C206.792 151.901 206.848 151.814 206.936 151.795L210.938 150.928C211.315 150.845 211.566 150.495 211.51 150.131C211.48 149.936 211.375 149.768 211.213 149.657C211.051 149.546 210.857 149.508 210.665 149.55L207.005 150.357C206.918 150.375 206.831 150.321 206.811 150.233C206.792 150.145 206.847 150.059 206.935 150.039L210.595 149.233C210.871 149.172 211.163 149.229 211.397 149.389C211.633 149.551 211.788 149.797 211.832 150.082C211.913 150.615 211.552 151.126 211.008 151.246L207.005 152.113C206.993 152.116 206.981 152.117 206.97 152.117Z" fill="#F07162"/>
<path d="M206.284 149.402C206.397 149.905 206.822 150.217 206.936 150.191L210.755 149.35C211.184 149.255 211.487 148.849 211.421 148.415C211.348 147.939 210.89 147.63 210.428 147.732L206.511 148.596C206.511 148.596 206.172 148.9 206.284 149.402Z" fill="#FE9F73"/>
<path d="M206.937 150.332C206.865 150.332 206.801 150.282 206.785 150.21C206.767 150.126 206.82 150.043 206.904 150.025L210.723 149.198C211.082 149.118 211.321 148.785 211.268 148.437C211.24 148.251 211.139 148.091 210.984 147.985C210.83 147.879 210.644 147.843 210.461 147.883L206.97 148.653C206.886 148.67 206.803 148.618 206.785 148.535C206.767 148.451 206.819 148.368 206.903 148.35L210.394 147.58C210.658 147.522 210.937 147.577 211.16 147.729C211.385 147.884 211.533 148.119 211.574 148.39C211.653 148.899 211.307 149.386 210.789 149.501L206.969 150.328C206.959 150.331 206.947 150.332 206.937 150.332Z" fill="#F07162"/>
<path d="M207.444 153.693C207.367 153.693 207.299 153.638 207.284 153.56C207.268 153.472 207.326 153.387 207.414 153.371L211.342 152.64C211.722 152.564 211.955 152.257 211.907 151.895C211.881 151.699 211.778 151.529 211.619 151.415C211.459 151.301 211.266 151.259 211.073 151.298L206.952 152.123C206.864 152.141 206.778 152.084 206.76 151.996C206.743 151.908 206.8 151.822 206.888 151.805L211.009 150.979C211.286 150.923 211.577 150.986 211.808 151.15C212.041 151.317 212.191 151.566 212.229 151.852C212.3 152.384 211.953 152.849 211.403 152.96L207.474 153.691C207.464 153.692 207.454 153.693 207.444 153.693Z" fill="#F07162"/>
<path d="M207.776 155.269C207.699 155.269 207.631 155.215 207.617 155.136C207.6 155.048 207.658 154.963 207.746 154.947L211.498 154.241C211.846 154.175 212.086 153.862 212.045 153.528C212.023 153.348 211.931 153.191 211.786 153.085C211.641 152.979 211.464 152.939 211.287 152.972L207.44 153.696C207.352 153.713 207.267 153.654 207.25 153.566C207.233 153.478 207.291 153.393 207.38 153.376L211.227 152.652C211.489 152.603 211.763 152.665 211.978 152.822C212.197 152.982 212.335 153.219 212.368 153.488C212.429 153.992 212.074 154.463 211.558 154.56L207.806 155.266C207.796 155.268 207.786 155.269 207.776 155.269Z" fill="#F07162"/>
<path d="M212.522 146.654C212.522 146.654 214.614 147.58 215.192 147.543C215.771 147.507 218.153 147.022 218.153 147.022L219.315 155.463C219.315 155.463 217.541 155.673 214.469 155.512C211.397 155.35 212.522 146.654 212.522 146.654Z" fill="#FE9F73"/>
<path d="M260.203 120.002C260.203 120.002 245.806 114.383 242.504 119.466C239.202 124.549 233.748 138.417 233.83 138.775C234.727 142.676 239.451 146.867 242.345 148.41C245.047 149.85 245.894 148.853 247.667 146.679C250.701 142.959 252.027 126.603 252.07 126.732C252.109 126.85 260.203 120.002 260.203 120.002Z" fill="url(#paint8_linear_2113_8128)"/>
<path d="M277.236 120.216C278.299 121.723 279.561 125.999 281.152 130.593C283.26 136.681 285.615 143.19 285.615 143.19C285.615 143.19 285.977 145.027 277.357 145.833L277.933 175.22C277.933 175.22 261.368 180.872 241.9 175.157C241.9 175.157 241.032 122.964 243.713 118.901C246.394 114.838 272.746 113.85 277.236 120.216Z" fill="url(#paint9_linear_2113_8128)"/>
<path d="M254.608 101.711L254.386 110.165C254.386 110.165 254.202 112.88 256.571 113.282L256.032 116.897C255.831 118.241 256.604 119.552 257.887 119.996C258.515 120.213 259.267 120.379 260.124 120.402C262.842 120.473 264.368 118.473 264.621 117.46C264.874 116.447 264.323 111.559 264.323 111.559L264.468 109.168L264.402 99.8887L254.608 101.711Z" fill="#FE9F73"/>
<path d="M262.149 111.11C262.149 111.11 261.87 115.655 256.177 115.941L256.575 113.275C256.575 113.275 260.24 114.112 262.149 111.11Z" fill="#F07162"/>
<path d="M261.056 106.315C261.085 106.316 261.113 106.306 261.136 106.285C261.182 106.243 261.185 106.172 261.143 106.125C261.128 106.109 259.612 104.475 258.159 105.584C258.109 105.622 258.099 105.693 258.138 105.743C258.176 105.793 258.247 105.802 258.296 105.764C259.584 104.781 260.92 106.217 260.976 106.278C260.997 106.302 261.027 106.314 261.056 106.315Z" fill="black"/>
<path d="M264.989 105.223L262.532 105.668L262.078 106.114C262.078 106.114 262.397 102.022 262.879 101.228C263.36 100.435 264.989 105.223 264.989 105.223Z" fill="black"/>
<path d="M256.407 105.511C256.438 105.512 256.47 105.5 256.493 105.474C256.536 105.428 256.533 105.357 256.486 105.314C256.442 105.274 255.386 104.321 254.687 104.889C254.639 104.928 254.631 105 254.671 105.048C254.71 105.097 254.782 105.105 254.83 105.065C255.377 104.62 256.324 105.473 256.333 105.482C256.354 105.501 256.38 105.511 256.407 105.511Z" fill="black"/>
<path d="M258.75 106.713C258.745 106.9 258.893 107.057 259.081 107.061C259.268 107.066 259.425 106.918 259.43 106.731C259.435 106.543 259.286 106.387 259.099 106.382C258.911 106.377 258.755 106.525 258.75 106.713Z" fill="black"/>
<path d="M255.151 106.275C255.146 106.463 255.294 106.619 255.481 106.624C255.669 106.629 255.825 106.481 255.83 106.293C255.835 106.105 255.687 105.949 255.499 105.944C255.312 105.939 255.156 106.088 255.151 106.275Z" fill="black"/>
<path d="M261.562 106.665C261.533 107.791 262.421 108.728 263.547 108.757C264.673 108.787 265.61 107.898 265.639 106.772C265.669 105.646 264.78 104.71 263.654 104.68C262.528 104.651 261.592 105.54 261.562 106.665Z" fill="#FE9F73"/>
<path d="M263.929 107.858C264.352 107.869 264.644 107.558 264.745 107.242C264.865 106.869 264.748 106.5 264.448 106.302C264.004 106.01 263.59 106.179 263.377 106.312C263.471 106.083 263.613 105.918 263.801 105.821C264.209 105.61 264.703 105.784 264.708 105.786C264.737 105.797 264.77 105.782 264.78 105.752C264.791 105.723 264.776 105.69 264.746 105.68C264.724 105.672 264.202 105.487 263.75 105.72C263.49 105.854 263.308 106.099 263.211 106.449L263.156 106.645L263.304 106.505C263.325 106.485 263.822 106.027 264.386 106.397C264.698 106.602 264.716 106.962 264.637 107.208C264.555 107.463 264.322 107.755 263.933 107.744C263.929 107.744 263.925 107.744 263.921 107.744C263.89 107.743 263.864 107.767 263.863 107.798C263.862 107.83 263.886 107.856 263.917 107.857C263.921 107.857 263.925 107.858 263.929 107.858Z" fill="#F07162"/>
<path d="M257.494 108.971C257.518 108.971 257.541 108.957 257.549 108.933C257.56 108.904 257.544 108.871 257.515 108.861L256.39 108.455L256.818 105.793C256.823 105.763 256.802 105.733 256.771 105.728C256.74 105.723 256.711 105.744 256.706 105.775L256.263 108.53L257.476 108.967C257.482 108.969 257.488 108.97 257.494 108.971Z" fill="#F07162"/>
<path d="M258.347 110.097C258.312 110.089 256.106 109.979 256.106 109.979C256.106 109.979 256.36 110.9 257.179 110.943C257.999 110.986 258.347 110.097 258.347 110.097Z" fill="#FBFDFC"/>
<path d="M264.99 105.228C264.99 105.228 265.782 101.277 264.606 99.7654C263.429 98.254 256.522 95.482 255.657 96.1994C254.792 96.917 255.614 97.8375 255.614 97.8375C255.614 97.8375 252.837 96.8658 252.138 99.3326C251.439 101.799 257.435 103.014 261.059 101.946C261.059 101.946 263.417 102.702 264.99 105.228Z" fill="black"/>
<path d="M250.17 156.482C250.507 156.546 265.128 158.437 274.756 155.227C278.107 154.109 281.229 151.505 282.766 149.403C285.098 146.214 283.574 140.098 281.409 135.722L276.271 141.243C275.697 141.861 275.035 142.391 274.307 142.817C271.629 144.383 265.383 147.898 259.094 148.408L250.17 156.482Z" fill="#FE9F73"/>
<path d="M285.615 143.19C285.615 143.19 285.455 143.451 284.644 143.992C283.691 144.627 281.784 145.573 277.357 145.832C277.357 145.832 272.651 145.914 267.088 143.19C261.524 140.465 273.783 130.172 273.783 130.172L279.63 132.356L282.27 134.524L285.615 143.19Z" fill="url(#paint10_linear_2113_8128)"/>
<path d="M237.897 145.19C237.941 145.19 237.984 145.171 238.014 145.134C238.066 145.069 238.055 144.975 237.99 144.923C234.667 142.265 234.04 139.11 233.983 138.783C235.121 134.221 241.717 119.959 243.606 118.553C245.535 117.117 255.521 115.809 255.621 115.795C255.703 115.785 255.761 115.71 255.751 115.628C255.74 115.545 255.664 115.488 255.583 115.498C255.169 115.552 245.418 116.83 243.427 118.313C241.367 119.845 234.701 134.618 233.685 138.74L233.678 138.769L233.682 138.797C233.687 138.832 234.22 142.292 237.803 145.157C237.831 145.179 237.864 145.19 237.897 145.19Z" fill="black"/>
<path d="M252.899 177.479C246.285 176.756 241.896 175.314 241.852 175.299L241.758 175.268L241.75 175.169C240.713 161.726 242.476 124.889 242.494 124.518C242.498 124.435 242.569 124.368 242.651 124.376C242.734 124.38 242.797 124.45 242.793 124.532C242.775 124.902 241.022 161.538 242.041 175.045C242.712 175.257 246.882 176.52 252.932 177.181C259.008 177.846 268.27 178.02 277.889 175.077C277.969 175.053 278.053 175.097 278.077 175.177C278.101 175.256 278.056 175.34 277.977 175.364C271.689 177.287 265.556 177.886 260.356 177.886C257.56 177.886 255.033 177.713 252.899 177.479Z" fill="black"/>
<path d="M277.969 145.797C280.802 145.797 283.798 145.234 285.721 143.296L285.788 143.229L285.756 143.14L277.982 121.2C277.947 121.079 276.997 118.061 272.083 117.027C267.25 116.011 265.308 115.776 265.289 115.773C265.208 115.764 265.133 115.822 265.123 115.905C265.113 115.987 265.172 116.061 265.254 116.071C265.273 116.073 267.205 116.307 272.022 117.321C276.762 118.318 277.689 121.263 277.698 121.293L285.442 143.151C281.271 147.225 271.729 144.761 270.627 144.459C270.483 141.1 268.122 126.145 268.098 125.992C268.085 125.911 268.007 125.854 267.926 125.868C267.844 125.881 267.788 125.957 267.801 126.039C267.826 126.193 270.238 141.472 270.332 144.578L270.335 144.687L270.439 144.718C270.69 144.792 274.184 145.797 277.969 145.797Z" fill="black"/>
<path d="M268.592 130.321C268.625 130.321 268.658 130.31 268.686 130.287C268.75 130.235 268.76 130.141 268.708 130.077L267.203 128.229C267.151 128.165 267.057 128.155 266.993 128.208C266.929 128.26 266.919 128.354 266.971 128.419L268.475 130.266C268.505 130.302 268.548 130.321 268.592 130.321Z" fill="black"/>
<path d="M270.687 171.855C270.723 171.855 270.759 171.843 270.787 171.817L274.62 168.375C274.682 168.319 274.687 168.225 274.632 168.163C274.576 168.102 274.482 168.096 274.42 168.151L270.587 171.594C270.525 171.649 270.52 171.744 270.576 171.805C270.605 171.838 270.646 171.855 270.687 171.855Z" fill="black"/>
<path d="M271.699 173.722C271.737 173.722 271.775 173.707 271.804 173.678L274.627 170.88C274.685 170.822 274.686 170.727 274.628 170.668C274.569 170.61 274.475 170.609 274.416 170.668L271.593 173.466C271.534 173.524 271.534 173.619 271.592 173.678C271.622 173.707 271.66 173.722 271.699 173.722Z" fill="black"/>
<path d="M251.271 156.276H245.838C245.288 156.276 244.842 155.763 244.842 155.131V149.119V142.575C244.842 141.943 245.288 141.43 245.838 141.43H251.271C251.821 141.43 252.267 141.943 252.267 142.575V155.131C252.267 155.763 251.821 156.276 251.271 156.276Z" fill="#C2FBFF"/>
<path d="M251.269 156.472C251.16 156.472 251.072 156.384 251.072 156.275C251.072 156.166 251.16 156.078 251.269 156.078C251.71 156.078 252.068 155.653 252.068 155.129V142.574C252.068 142.051 251.709 141.626 251.269 141.626H245.836C245.727 141.626 245.639 141.537 245.639 141.429C245.639 141.32 245.727 141.231 245.836 141.231H251.269C251.927 141.231 252.462 141.834 252.462 142.574V155.129C252.462 155.87 251.927 156.472 251.269 156.472Z" fill="#21111D"/>
<path d="M244.398 149.733C243.753 148.729 244.736 147.833 244.736 147.833C244.696 146.512 245.149 146.032 245.149 146.032C245.149 146.032 248.383 147.784 250.19 148.923C251.331 148.99 251.835 148.533 251.835 148.533L251.854 148.585C252.078 147.631 252.358 146.438 252.386 146.303C252.435 146.074 252.878 145.785 253.296 146.63C253.715 147.474 254.252 149.09 254.252 149.09L261.052 148.155L258.247 157.106C258.247 157.106 251.109 156.623 250.026 156.473C248.943 156.324 245.415 154.666 244.504 153.518C243.592 152.371 244.003 151.602 244.003 151.602C243.391 150.442 244.398 149.733 244.398 149.733Z" fill="#FE9F73"/>
<path d="M246.821 149.56C246.875 149.572 246.933 149.548 246.962 149.497C246.998 149.434 246.976 149.354 246.913 149.318C246.031 148.812 244.833 147.743 244.822 147.733C244.768 147.684 244.684 147.689 244.636 147.743C244.588 147.797 244.592 147.88 244.646 147.928C244.696 147.973 245.876 149.026 246.783 149.546C246.795 149.553 246.808 149.558 246.821 149.56Z" fill="#F07162"/>
<path d="M246.479 151.189C246.54 151.202 246.603 151.17 246.627 151.111C246.655 151.043 246.623 150.967 246.556 150.939C245.412 150.466 244.495 149.641 244.486 149.633C244.432 149.584 244.349 149.588 244.301 149.642C244.252 149.696 244.256 149.779 244.31 149.827C244.348 149.862 245.268 150.691 246.456 151.182C246.463 151.185 246.471 151.187 246.479 151.189Z" fill="#F07162"/>
<path d="M245.802 152.985C245.861 152.998 245.923 152.968 245.948 152.911C245.978 152.844 245.948 152.767 245.882 152.737C244.907 152.3 244.104 151.514 244.096 151.506C244.044 151.455 243.961 151.455 243.91 151.507C243.859 151.559 243.859 151.642 243.911 151.693C243.945 151.726 244.756 152.521 245.775 152.977C245.784 152.981 245.793 152.984 245.802 152.985Z" fill="#F07162"/>
<g opacity="0.3">
<path d="M245.449 143.368C245.449 143.866 245.853 144.269 246.351 144.269C246.848 144.269 247.252 143.866 247.252 143.368C247.252 142.87 246.848 142.467 246.351 142.467C245.853 142.467 245.449 142.87 245.449 143.368Z" fill="#E9F4FB"/>
</g>
<path d="M343.065 115.02H302.758C301.471 115.02 300.427 116.063 300.427 117.351V136.874C300.427 138.161 301.47 139.205 302.758 139.205H306.191L304.627 143.476L310.804 139.205H343.065C344.352 139.205 345.396 138.161 345.396 136.874V117.351C345.396 116.063 344.352 115.02 343.065 115.02Z" fill="#E9F4FB"/>
<path d="M341.172 130.25H303.675C303.415 130.25 303.205 130.04 303.205 129.78C303.205 129.521 303.415 129.311 303.675 129.311H341.172C341.432 129.311 341.642 129.521 341.642 129.78C341.642 130.04 341.432 130.25 341.172 130.25Z" fill="#202028"/>
<path d="M328.039 119.575H303.675C303.416 119.575 303.205 119.365 303.205 119.106C303.205 118.846 303.416 118.636 303.675 118.636H328.039C328.299 118.636 328.509 118.846 328.509 119.106C328.509 119.365 328.299 119.575 328.039 119.575Z" fill="#202028"/>
<path d="M314.209 135.586H303.675C303.415 135.586 303.205 135.376 303.205 135.116C303.205 134.857 303.415 134.646 303.675 134.646H314.209C314.469 134.646 314.679 134.857 314.679 135.116C314.679 135.376 314.469 135.586 314.209 135.586Z" fill="#202028"/>
<path d="M341.173 135.587H317.505C317.245 135.587 317.035 135.377 317.035 135.117C317.035 134.858 317.245 134.647 317.505 134.647H341.173C341.432 134.647 341.643 134.858 341.643 135.117C341.643 135.377 341.432 135.587 341.173 135.587Z" fill="#202028"/>
<path d="M341.452 119.575H331.73C331.47 119.575 331.26 119.365 331.26 119.106C331.26 118.846 331.47 118.636 331.73 118.636H341.452C341.712 118.636 341.922 118.846 341.922 119.106C341.922 119.365 341.712 119.575 341.452 119.575Z" fill="#202028"/>
<path d="M318.989 124.915H303.675C303.415 124.915 303.205 124.705 303.205 124.445C303.205 124.186 303.415 123.976 303.675 123.976H318.989C319.249 123.976 319.459 124.186 319.459 124.445C319.459 124.705 319.249 124.915 318.989 124.915Z" fill="#202028"/>
<path d="M341.451 124.915H322.424C322.164 124.915 321.954 124.705 321.954 124.445C321.954 124.186 322.165 123.976 322.424 123.976H341.451C341.711 123.976 341.921 124.186 341.921 124.445C341.921 124.705 341.71 124.915 341.451 124.915Z" fill="#202028"/>
<path d="M319.878 180.967V205.421C319.878 207.678 321.708 209.509 323.966 209.509H383.088C385.347 209.509 387.177 207.678 387.177 205.421V180.94C387.177 178.838 385.592 177.108 383.552 176.878H323.966C321.708 176.878 319.878 178.708 319.878 180.967Z" fill="#292B33"/>
<path d="M341.759 207.735C341.676 207.944 331.727 217.768 331.718 217.436C331.708 217.104 331.709 217.103 334.311 205.775L341.759 207.735Z" fill="#292B33"/>
<path d="M340.803 192.757C340.803 195.969 338.945 198.748 336.245 200.078C335.16 200.612 333.937 200.911 332.647 200.911C331.846 200.911 331.071 200.796 330.341 200.58C326.96 199.586 324.492 196.46 324.492 192.757C324.492 188.254 328.144 184.603 332.647 184.603C337.151 184.603 340.803 188.254 340.803 192.757Z" fill="#E9F4FB"/>
<path d="M340.246 192.758C340.246 195.706 338.567 198.262 336.112 199.521C336.075 199.541 336.037 199.56 335.999 199.579C334.988 200.077 333.849 200.356 332.647 200.356C331.926 200.356 331.228 200.255 330.568 200.067C330.544 200.061 330.522 200.054 330.498 200.047C327.348 199.12 325.049 196.208 325.049 192.758C325.049 188.562 328.451 185.16 332.647 185.16C336.844 185.16 340.246 188.562 340.246 192.758Z" fill="#8CD2F9"/>
<path d="M336.112 199.521C336.075 199.54 336.037 199.56 335.999 199.578C334.988 200.076 333.849 200.355 332.647 200.355C331.926 200.355 331.228 200.255 330.568 200.066L330.628 199.671L330.884 197.95C329.354 197.69 329.473 195.938 329.473 195.938L329.614 190.578L329.617 190.479L335.94 189.302L335.958 191.769L335.961 192.246L335.964 192.515L335.965 192.815L335.98 194.907L335.983 195.294L335.889 196.837C335.889 196.838 336.063 198.37 336.112 199.521Z" fill="#FE9F73"/>
<path d="M334.488 196.557C334.488 196.557 334.308 199.491 330.632 199.675L330.889 197.954C330.889 197.954 333.255 198.495 334.488 196.557Z" fill="#F07162"/>
<path d="M336.323 192.751L334.736 193.038L334.443 193.326C334.443 193.326 334.649 190.684 334.96 190.172C335.271 189.659 336.323 192.751 336.323 192.751Z" fill="black"/>
<path d="M334.105 193.678C334.086 194.405 334.66 195.009 335.387 195.028C336.113 195.048 336.718 194.474 336.737 193.747C336.756 193.02 336.182 192.415 335.455 192.396C334.729 192.377 334.124 192.951 334.105 193.678Z" fill="#FE9F73"/>
<path d="M336.321 192.752C336.321 192.752 336.833 190.201 336.073 189.225C335.314 188.249 330.854 186.46 330.296 186.923C329.737 187.386 330.268 187.98 330.268 187.98C330.268 187.98 328.475 187.353 328.024 188.946C327.572 190.539 331.444 191.323 333.783 190.633C333.783 190.633 335.306 191.121 336.321 192.752Z" fill="black"/>
<path d="M344.601 181.831L345.501 183.655L347.514 183.948L346.057 185.367L346.401 187.372L344.601 186.426L342.8 187.372L343.144 185.367L341.688 183.948L343.7 183.655L344.601 181.831Z" fill="#E9F4FB"/>
<path d="M353.363 181.831L354.263 183.655L356.276 183.948L354.819 185.367L355.163 187.372L353.363 186.426L351.562 187.372L351.906 185.367L350.449 183.948L352.462 183.655L353.363 181.831Z" fill="#E9F4FB"/>
<path d="M362.125 181.831L363.025 183.655L365.038 183.948L363.582 185.367L363.925 187.372L362.125 186.426L360.324 187.372L360.668 185.367L359.212 183.948L361.225 183.655L362.125 181.831Z" fill="#E9F4FB"/>
<path d="M370.887 181.831L371.787 183.655L373.8 183.948L372.343 185.367L372.687 187.372L370.887 186.426L369.086 187.372L369.43 185.367L367.974 183.948L369.987 183.655L370.887 181.831Z" fill="#E9F4FB"/>
<path d="M379.648 181.831L380.549 183.655L382.562 183.948L381.105 185.367L381.449 187.372L379.648 186.426L377.848 187.372L378.192 185.367L376.735 183.948L378.748 183.655L379.648 181.831Z" fill="#E9F4FB"/>
<path d="M376.203 190.114H343.501V190.902H376.203V190.114Z" fill="#E9F4FB"/>
<path d="M382.017 193.645H343.501V194.432H382.017V193.645Z" fill="#E9F4FB"/>
<path d="M382.017 197.175H343.501V197.962H382.017V197.175Z" fill="#E9F4FB"/>
<path d="M144.196 178.657L145.033 175.631C145.099 175.65 151.776 177.416 158.532 174.441L159.797 177.315C151.985 180.754 144.511 178.745 144.196 178.657Z" fill="#223749"/>
<path d="M179.314 163.478C178.939 163.94 178.259 164.011 177.797 163.636C177.334 163.26 177.263 162.581 177.639 162.118L180.081 159.107C180.457 158.644 181.136 158.574 181.599 158.949C182.062 159.325 182.133 160.004 181.757 160.467L179.314 163.478Z" fill="#444654"/>
<path d="M178.622 159.725C178.185 160.334 177.337 160.474 176.727 160.037C176.118 159.6 175.979 158.752 176.416 158.142L179.259 154.18C179.696 153.571 180.544 153.431 181.153 153.868C181.762 154.305 181.902 155.153 181.465 155.762L178.622 159.725Z" fill="#444654"/>
<path d="M173.938 158.086C173.283 157.722 173.048 156.895 173.412 156.24L175.784 151.979C176.149 151.324 176.975 151.088 177.63 151.453C178.285 151.817 178.521 152.644 178.156 153.299L175.784 157.56C175.42 158.216 174.593 158.451 173.938 158.086Z" fill="#444654"/>
<path d="M169.572 158.594C168.917 158.229 168.682 157.403 169.047 156.748L171.419 152.486C171.783 151.831 172.61 151.596 173.265 151.961C173.92 152.325 174.155 153.152 173.791 153.807L171.419 158.068C171.054 158.723 170.228 158.959 169.572 158.594Z" fill="#444654"/>
<path d="M167.158 162.318C166.31 162.499 165.476 161.959 165.295 161.111L164.117 155.597C163.936 154.749 164.476 153.915 165.324 153.734C166.172 153.553 167.006 154.094 167.187 154.941L168.365 160.456C168.546 161.303 168.005 162.137 167.158 162.318Z" fill="#444654"/>
<path d="M159.887 179.475C159.887 179.475 156.629 173.701 158.044 171.465C159.459 169.23 165.533 160.688 166.41 158.961C167.286 157.234 172.676 155.125 176.569 157.845C180.463 160.566 180.876 162.883 175.269 169.514C169.662 176.144 160.608 180.899 159.887 179.475Z" fill="url(#paint11_linear_2113_8128)"/>
<path d="M175.365 169.593C178.568 165.805 179.831 163.384 179.585 161.497C179.414 160.187 178.534 159.064 176.641 157.741C176.448 157.607 176.249 157.482 176.043 157.367C174.304 156.399 172.122 156.153 169.945 156.699C168.211 157.134 166.745 158.02 166.297 158.903C165.867 159.751 164.113 162.339 162.634 164.499C162.124 165.244 161.603 166.001 161.099 166.732C159.755 168.686 158.486 170.531 157.937 171.397C156.503 173.663 159.624 179.263 159.777 179.533C159.866 179.708 160.045 179.812 160.309 179.843C162.499 180.1 170.441 175.416 175.365 169.593ZM175.173 169.431C169.975 175.578 162.232 179.815 160.338 179.593C160.245 179.582 160.169 179.561 160.111 179.528C160.06 179.5 160.022 179.462 159.999 179.417L159.997 179.412C159.964 179.355 156.791 173.678 158.15 171.531C158.695 170.669 159.964 168.826 161.306 166.875C161.81 166.143 162.331 165.386 162.841 164.642C164.417 162.34 166.087 159.873 166.521 159.017C166.932 158.207 168.365 157.355 170.007 156.943C172.37 156.35 174.737 156.717 176.497 157.947C178.326 159.225 179.175 160.297 179.336 161.53C179.571 163.339 178.327 165.702 175.173 169.431Z" fill="#1D1D1B"/>
<path d="M172.083 164.528C170.649 162.671 168.186 161.722 164.763 161.707L164.764 161.456C167.005 161.466 168.847 161.871 170.273 162.664C171.076 163.111 171.748 163.683 172.283 164.376C174.567 167.334 173.521 171.537 173.51 171.579L173.267 171.517C173.277 171.476 174.292 167.388 172.083 164.528Z" fill="#1D1D1B"/>
<path d="M124.018 164.77H115.739V167.9H124.018H124.297H132.575V164.77H124.297H124.018Z" fill="#111E28"/>
<path d="M110.79 202.262C110.79 203.584 111.429 204.679 112.265 204.88H121.26C122.096 204.679 122.734 203.584 122.734 202.262V197.736H110.79V202.262Z" fill="#223749"/>
<path d="M125.58 202.262C125.58 203.584 126.219 204.679 127.055 204.88H136.05C136.886 204.679 137.524 203.584 137.524 202.262V197.736H125.58V202.262Z" fill="#444654"/>
<path d="M140.032 172.2L139.903 170.987C139.44 169.21 137.826 167.9 135.906 167.9H124.297H124.017H112.409C110.489 167.9 108.874 169.21 108.412 170.987L108.282 172.2L106.1 192.548L105.984 193.629V193.634C106.041 195.866 107.868 197.658 110.113 197.658H124.017H124.297H138.201C140.446 197.658 142.273 195.866 142.33 193.634V193.629L142.214 192.548L140.032 172.2Z" fill="#128455"/>
<path d="M113.288 171.491C113.066 170.578 112.101 170.062 111.219 170.385C108.652 171.325 103.66 173.669 99.9131 178.617L102.416 180.512C105.673 176.211 110.124 174.143 112.31 173.335C113.057 173.059 113.476 172.265 113.288 171.491Z" fill="#223749"/>
<path d="M90.838 199.323C90.2509 199.22 89.6916 199.612 89.5887 200.199L88.9188 204.018C88.8157 204.605 89.2082 205.164 89.795 205.267C90.382 205.37 90.9413 204.978 91.0442 204.391L91.7142 200.572C91.8172 199.985 91.425 199.426 90.838 199.323Z" fill="#444654"/>
<path d="M93.522 201.947C92.7772 201.862 92.1042 202.396 92.0185 203.141L91.4621 207.986C91.3766 208.731 91.911 209.404 92.6558 209.49C93.4005 209.575 94.0736 209.041 94.1591 208.296L94.7155 203.451C94.8012 202.706 94.2668 202.033 93.522 201.947Z" fill="#444654"/>
<path d="M96.9082 202.296C96.1586 202.296 95.5508 202.904 95.5508 203.653V208.531C95.5508 209.28 96.1586 209.888 96.9082 209.888C97.6578 209.888 98.2657 209.28 98.2657 208.531V203.653C98.2657 202.904 97.6578 202.296 96.9082 202.296Z" fill="#444654"/>
<path d="M100.477 199.729C99.727 199.729 99.1191 200.336 99.1191 201.086V205.963C99.1191 206.713 99.7268 207.32 100.477 207.32C101.226 207.32 101.834 206.713 101.834 205.963V201.086C101.834 200.336 101.226 199.729 100.477 199.729Z" fill="#444654"/>
<path d="M102.987 195.448C102.417 194.795 101.425 194.729 100.773 195.299C100.12 195.87 100.054 196.861 100.624 197.514L104.336 201.759C104.906 202.412 105.898 202.478 106.55 201.908C107.203 201.337 107.269 200.346 106.699 199.693L102.987 195.448Z" fill="#444654"/>
<path d="M98.7837 176.772C97.4617 175.879 91.8632 184.437 90.1888 192.958C88.5145 201.478 90.0028 203.301 94.7281 203.785C99.4533 204.269 103.137 199.804 103.062 197.869C102.988 195.934 104.142 185.516 104.29 182.875C104.439 180.233 98.7837 176.772 98.7837 176.772Z" fill="url(#paint12_linear_2113_8128)"/>
<path d="M119.664 204.88H114.194V215.241H119.664V204.88Z" fill="#223749"/>
<path d="M141.721 204.88H136.252V215.241H141.721V204.88Z" fill="#223749"/>
<path d="M131.619 164.77H123.341V167.9H131.619H131.899H140.177V164.77H131.899H131.619Z" fill="#444654"/>
<path d="M118.392 202.262C118.392 203.584 119.03 204.679 119.867 204.88H128.861C129.697 204.679 130.336 203.584 130.336 202.262V197.736H118.392L118.392 202.262Z" fill="#444654"/>
<path d="M124.185 227.687V219.485C124.185 215.555 120.551 212.61 116.715 213.463C114.448 213.968 112.451 215.062 112.074 217.306C111.125 222.943 110.79 234.775 110.79 234.775H129.989C129.989 234.775 130.212 229.417 124.185 227.687Z" fill="url(#paint13_linear_2113_8128)"/>
<path d="M130.808 234.774H110.27V236.449H130.808V234.774Z" fill="#223749"/>
<path d="M133.182 202.262C133.182 203.584 133.82 204.679 134.656 204.88H143.651C144.487 204.679 145.126 203.584 145.126 202.262V197.736H133.182V202.262Z" fill="#444654"/>
<path d="M147.634 172.2L147.505 170.987C147.043 169.21 145.428 167.9 143.508 167.9H131.899H131.62H120.011C118.091 167.9 116.476 169.21 116.014 170.987L115.885 172.2L113.703 192.548L113.587 193.629V193.634C113.643 195.866 115.47 197.658 117.716 197.658H131.62H131.899H145.804C148.049 197.658 149.876 195.866 149.932 193.634V193.629L149.817 192.548L147.634 172.2Z" fill="url(#paint14_linear_2113_8128)"/>
<path d="M146.242 227.687V219.485C146.242 215.555 142.608 212.61 138.772 213.463C136.506 213.968 134.509 215.062 134.131 217.306C133.182 222.943 132.848 234.775 132.848 234.775H152.047C152.047 234.775 152.27 229.417 146.242 227.687Z" fill="url(#paint15_linear_2113_8128)"/>
<path d="M152.865 234.775H132.326V236.45H152.865V234.775Z" fill="#223749"/>
<path d="M151.521 134.829H150.749V146.238H151.521V134.829Z" fill="#111E28"/>
<path d="M155.034 150.724C154.424 150.724 153.93 151.218 153.93 151.828C153.93 152.438 154.424 152.932 155.034 152.932C155.644 152.932 156.138 152.438 156.138 151.828C156.138 151.218 155.644 150.724 155.034 150.724Z" fill="#444654"/>
<path d="M155.033 149.372H153.618V154.283H155.033V149.372Z" fill="#111E28"/>
<path d="M151.607 144.911H148.129V158.807H151.607C152.623 158.807 153.464 158.064 153.619 157.091V146.627C153.464 145.654 152.623 144.911 151.607 144.911Z" fill="#444654"/>
<path d="M153.025 135.111C153.253 134.058 152.583 133.02 151.529 132.792C150.476 132.565 149.437 133.235 149.21 134.289C148.983 135.342 149.653 136.38 150.706 136.608C151.76 136.835 152.798 136.165 153.025 135.111Z" fill="#444654"/>
<path d="M140.014 134.533C138.146 133.396 126.512 133.489 125.282 133.502C124.052 133.489 112.418 133.396 110.55 134.533C108.577 135.734 106.175 149.801 105.918 153.147C105.661 156.48 106.087 165.261 125.175 166.175V166.185C125.211 166.184 125.246 166.182 125.282 166.18C125.318 166.182 125.353 166.184 125.389 166.185V166.175C144.477 165.261 144.903 156.48 144.646 153.147C144.389 149.801 141.987 135.734 140.014 134.533Z" fill="#128455"/>
<path d="M145.855 134.534C143.987 133.397 132.352 133.49 131.122 133.503C129.892 133.49 118.258 133.397 116.39 134.534C114.417 135.735 112.015 149.802 111.758 153.148C111.502 156.481 108.959 165.458 128.047 166.371H132.529C151.617 165.458 150.743 156.481 150.487 153.148C150.229 149.802 147.828 135.735 145.855 134.534Z" fill="url(#paint16_linear_2113_8128)"/>
<path d="M106.929 135.919H106.524V144.937H106.929V135.919Z" fill="#111E28"/>
<path d="M108.282 144.911H105.791C104.807 144.911 103.986 145.609 103.795 146.538C103.783 146.597 103.779 146.657 103.779 146.718V157.001C103.779 157.061 103.783 157.122 103.795 157.181C103.986 158.109 104.806 158.807 105.791 158.807H108.282C108.827 158.807 109.269 158.365 109.269 157.82V145.898C109.269 145.353 108.827 144.911 108.282 144.911Z" fill="#111E28"/>
<path d="M107.701 134.83H106.929V146.239H107.701V134.83Z" fill="#111E28"/>
<path d="M102.986 150.723C102.376 150.723 101.882 151.217 101.882 151.827C101.882 152.437 102.376 152.931 102.986 152.931C103.596 152.931 104.091 152.437 104.091 151.827C104.091 151.217 103.596 150.723 102.986 150.723Z" fill="#444654"/>
<path d="M104.401 149.373H102.986V154.284H104.401V149.373Z" fill="#111E28"/>
<path d="M109.333 144.912H106.843C105.858 144.912 105.037 145.61 104.847 146.539C104.835 146.598 104.831 146.658 104.831 146.719V157.002C104.831 157.062 104.835 157.123 104.847 157.182C105.038 158.11 105.858 158.808 106.843 158.808H109.333C109.879 158.808 110.321 158.366 110.321 157.821V145.899C110.321 145.354 109.879 144.912 109.333 144.912Z" fill="#444654"/>
<path d="M109.006 135.693C109.554 134.765 109.246 133.568 108.317 133.02C107.389 132.472 106.193 132.78 105.645 133.708C105.097 134.636 105.405 135.833 106.333 136.381C107.261 136.929 108.458 136.621 109.006 135.693Z" fill="#444654"/>
<path d="M142.187 138.317C140.793 137.469 132.182 137.53 131.122 137.541C130.062 137.53 121.451 137.469 120.058 138.317C118.573 139.222 116.764 149.812 116.571 152.33C116.378 154.836 116.699 161.433 131.015 162.135V162.146C131.051 162.144 131.086 162.142 131.122 162.14C131.158 162.142 131.193 162.144 131.229 162.146V162.135C145.546 161.433 145.866 154.836 145.674 152.33C145.48 149.812 143.672 139.221 142.187 138.317Z" fill="#444654"/>
<path d="M122.995 152.124C124.256 152.124 125.278 151.102 125.278 149.842C125.278 148.581 124.256 147.56 122.995 147.56C121.735 147.56 120.713 148.581 120.713 149.842C120.713 151.102 121.735 152.124 122.995 152.124Z" fill="#E9F4FB"/>
<path d="M139.25 147.558C137.99 147.558 136.968 148.58 136.968 149.84C136.968 151.101 137.99 152.122 139.25 152.122C140.511 152.122 141.532 151.1 141.532 149.84C141.532 148.58 140.511 147.558 139.25 147.558Z" fill="#E9F4FB"/>
<path d="M127.295 154.01C129.464 157.908 133.544 157.761 135.58 153.71H127.128L127.295 154.01Z" fill="#E9F4FB"/>
<path d="M138.839 174.637L138.831 174.576C138.572 173.149 137.613 172.153 136.499 172.153H126.208C125.094 172.153 124.135 173.149 123.876 174.576L122.805 188.845L122.804 188.87L122.804 188.903C122.835 190.644 123.889 192.008 125.203 192.008H137.504C138.819 192.008 139.873 190.644 139.904 188.903V188.867L138.895 175.398L138.839 174.637ZM137.504 190.826H125.203C124.565 190.826 124.01 189.945 123.986 188.906L124.991 175.486L125.045 174.757C125.203 173.931 125.69 173.335 126.208 173.335H136.499C137.018 173.335 137.504 173.931 137.663 174.757L138.721 188.905C138.695 189.949 138.141 190.826 137.504 190.826Z" fill="#128455"/>
<path d="M124.31 227.593V219.486C124.31 217.565 123.45 215.773 121.951 214.57C120.462 213.376 118.544 212.929 116.688 213.342C113.879 213.966 112.285 215.293 111.95 217.286C111.011 222.867 110.668 234.654 110.665 234.772L110.661 234.901H130.11L130.115 234.781C130.117 234.727 130.271 229.358 124.31 227.593ZM129.864 234.65H110.92C110.96 233.346 111.314 222.576 112.198 217.327C112.514 215.445 114.043 214.187 116.742 213.587C118.524 213.19 120.365 213.62 121.794 214.766C123.234 215.921 124.059 217.641 124.059 219.486V227.782L124.15 227.808C127.212 228.687 128.602 230.53 129.228 231.921C129.79 233.17 129.858 234.29 129.864 234.65Z" fill="#1D1D1B"/>
<path d="M110.69 234.699L110.891 234.851C115.377 228.938 124.112 227.822 124.2 227.812L124.17 227.562C124.081 227.573 115.242 228.7 110.69 234.699Z" fill="#1D1D1B"/>
<path d="M146.368 227.593V219.486C146.368 217.565 145.508 215.773 144.008 214.57C142.52 213.376 140.602 212.929 138.745 213.342C135.937 213.966 134.343 215.293 134.008 217.286C133.068 222.867 132.726 234.654 132.722 234.772L132.719 234.901H152.167L152.172 234.781C152.175 234.727 152.329 229.358 146.368 227.593ZM151.922 234.65H132.977C133.018 233.346 133.372 222.576 134.255 217.327C134.572 215.445 136.101 214.187 138.8 213.587C140.582 213.19 142.422 213.62 143.851 214.766C145.291 215.921 146.117 217.641 146.117 219.486V227.782L146.208 227.808C149.27 228.687 150.659 230.53 151.286 231.921C151.848 233.17 151.916 234.29 151.922 234.65Z" fill="#1D1D1B"/>
<path d="M132.747 234.699L132.947 234.851C137.434 228.938 146.169 227.822 146.257 227.812L146.227 227.562C146.138 227.573 137.299 228.7 132.747 234.699Z" fill="#1D1D1B"/>
<path d="M145 201.939C145 204.492 143.751 204.738 143.643 204.755H112.265V205.006H143.658L143.665 205.005C143.73 204.998 145.251 204.791 145.251 201.939V197.736H145L145 201.939Z" fill="#1D1D1B"/>
<path d="M109.519 197.497L109.519 197.748L146.188 197.873L146.189 197.622L109.519 197.497Z" fill="#1D1D1B"/>
<path d="M115.606 173.531L113.629 191.989L113.879 192.016L115.856 173.558L115.606 173.531Z" fill="#1D1D1B"/>
<path d="M145.012 191.279L143.46 193.437L143.664 193.584L145.216 191.426L145.012 191.279Z" fill="#1D1D1B"/>
<path d="M146.581 192.67L145.028 194.828L145.232 194.975L146.785 192.817L146.581 192.67Z" fill="#1D1D1B"/>
<path d="M98.85 176.667C98.6869 176.558 98.48 176.554 98.2343 176.655C96.1962 177.495 91.5343 185.451 90.0642 192.933C89.1076 197.801 89.1824 200.531 90.3147 202.06C91.1008 203.121 92.4164 203.675 94.7139 203.91C94.9475 203.934 95.1822 203.946 95.4175 203.946C97.4078 203.946 99.4338 203.099 101.07 201.564C102.374 200.34 103.225 198.854 103.187 197.864C103.15 196.915 103.423 193.8 103.666 191.192C103.749 190.291 103.837 189.374 103.921 188.487C104.145 186.13 104.357 183.904 104.414 182.882C104.565 180.204 99.1146 176.829 98.85 176.667ZM104.163 182.867C104.106 183.885 103.895 186.108 103.671 188.463C103.586 189.35 103.499 190.268 103.415 191.169C103.157 193.947 102.899 196.915 102.936 197.874C102.97 198.78 102.133 200.222 100.898 201.381C99.1215 203.048 96.8774 203.88 94.7393 203.66C92.5193 203.433 91.2563 202.91 90.5163 201.91C89.4305 200.444 89.3689 197.774 90.3107 192.982C91.8629 185.083 96.5675 177.614 98.3303 176.888C98.417 176.852 98.4937 176.834 98.5601 176.834C98.6193 176.834 98.6701 176.848 98.7121 176.877L98.717 176.88C98.7724 176.914 104.306 180.331 104.163 182.867Z" fill="#1D1D1B"/>
<path d="M95.3968 195.764C92.0753 194.34 90.9733 190.274 90.9627 190.233L90.7197 190.297C90.7307 190.339 91.8616 194.52 95.2961 195.994C96.1008 196.34 96.9646 196.512 97.8846 196.512C99.5156 196.512 101.323 195.97 103.285 194.889L103.164 194.669C100.166 196.32 97.553 196.689 95.3968 195.764Z" fill="#1D1D1B"/>
<path d="M150.583 153.14C150.335 149.925 147.948 135.695 145.904 134.451C144.018 133.303 132.436 133.393 131.123 133.407C129.808 133.392 118.226 133.303 116.339 134.451C114.297 135.695 111.909 149.925 111.661 153.14C111.643 153.384 111.611 153.663 111.577 153.959C111.349 155.972 111.005 159.013 113.234 161.633C115.663 164.487 120.645 166.114 128.047 166.468H132.533C140.339 166.094 145.695 164.319 148.453 161.192C150.984 158.323 150.727 155.013 150.59 153.234L150.583 153.14ZM148.309 161.064C145.586 164.151 140.275 165.904 132.529 166.275H128.051C120.71 165.923 115.774 164.319 113.381 161.508C111.206 158.951 111.545 155.96 111.769 153.981C111.803 153.683 111.835 153.402 111.854 153.155C112.12 149.702 114.535 135.775 116.44 134.616C117.951 133.696 126 133.592 129.554 133.592C130.328 133.592 130.889 133.597 131.123 133.599C132.432 133.586 143.964 133.496 145.804 134.616C147.709 135.776 150.125 149.702 150.39 153.155L150.397 153.249C150.533 154.999 150.785 158.257 148.309 161.064Z" fill="#1D1D1B"/>
<path d="M110.407 145.757C110.301 144.918 109.352 144.818 109.343 144.817L109.338 144.816L106.524 144.841L106.526 145.034L109.329 145.01C109.401 145.018 110.127 145.115 110.215 145.775L110.224 157.335L110.417 157.335L110.408 145.769L110.407 145.757Z" fill="#1D1D1B"/>
<path d="M151.765 144.818L149.191 144.816V145.009H151.736C151.855 145.036 153.172 145.353 153.489 146.479L153.675 146.426C153.311 145.137 151.828 144.831 151.765 144.818Z" fill="#1D1D1B"/>
<path d="M153.708 146.62L153.515 146.622L153.623 156.413L153.816 156.411L153.708 146.62Z" fill="#1D1D1B"/>
<path d="M139.553 160.546C137.208 161.441 134.329 161.957 131.228 162.039C124.964 162.201 119.729 159.005 119.677 158.973L119.575 159.137C119.626 159.168 124.644 162.238 130.757 162.238C130.915 162.238 131.074 162.236 131.233 162.231C137.622 162.063 142.749 160.113 144.613 157.141L144.45 157.038C143.565 158.449 141.872 159.662 139.553 160.546Z" fill="#1D1D1B"/>
<path d="M121.691 137.806L121.699 137.998C121.828 137.993 134.687 137.488 139.767 137.907L139.782 137.714C134.691 137.294 121.821 137.8 121.691 137.806Z" fill="#1D1D1B"/>
</g>
<defs>
<linearGradient id="paint0_linear_2113_8128" x1="214.795" y1="26.1199" x2="289.958" y2="52.2561" gradientUnits="userSpaceOnUse">
<stop stop-color="#41C791"/>
<stop offset="0.620217" stop-color="#0674F0"/>
<stop offset="0.680217" stop-color="#6961B5"/>
<stop offset="0.813" stop-color="#F34660"/>
<stop offset="1" stop-color="#EE078D"/>
</linearGradient>
<linearGradient id="paint1_linear_2113_8128" x1="98.4076" y1="127.32" x2="363.122" y2="252.135" gradientUnits="userSpaceOnUse">
<stop stop-color="#41C791"/>
<stop offset="0.620217" stop-color="#0674F0"/>
<stop offset="0.680217" stop-color="#6961B5"/>
<stop offset="0.813" stop-color="#F34660"/>
<stop offset="1" stop-color="#EE078D"/>
</linearGradient>
<linearGradient id="paint2_linear_2113_8128" x1="104.032" y1="105.468" x2="120.186" y2="172.977" gradientUnits="userSpaceOnUse">
<stop stop-color="#41C791"/>
<stop offset="0.620217" stop-color="#0674F0"/>
<stop offset="0.680217" stop-color="#6961B5"/>
<stop offset="0.813" stop-color="#F34660"/>
<stop offset="1" stop-color="#EE078D"/>
</linearGradient>
<linearGradient id="paint3_linear_2113_8128" x1="84.9508" y1="123.876" x2="91.9571" y2="124.725" gradientUnits="userSpaceOnUse">
<stop stop-color="#41C791"/>
<stop offset="0.620217" stop-color="#0674F0"/>
<stop offset="0.680217" stop-color="#6961B5"/>
<stop offset="0.813" stop-color="#F34660"/>
<stop offset="1" stop-color="#EE078D"/>
</linearGradient>
<linearGradient id="paint4_linear_2113_8128" x1="84.9508" y1="139.681" x2="91.9565" y2="140.532" gradientUnits="userSpaceOnUse">
<stop stop-color="#41C791"/>
<stop offset="0.620217" stop-color="#0674F0"/>
<stop offset="0.680217" stop-color="#6961B5"/>
<stop offset="0.813" stop-color="#F34660"/>
<stop offset="1" stop-color="#EE078D"/>
</linearGradient>
<linearGradient id="paint5_linear_2113_8128" x1="101.82" y1="127.59" x2="366.033" y2="252.817" gradientUnits="userSpaceOnUse">
<stop stop-color="#41C791"/>
<stop offset="0.620217" stop-color="#0674F0"/>
<stop offset="0.680217" stop-color="#6961B5"/>
<stop offset="0.813" stop-color="#F34660"/>
<stop offset="1" stop-color="#EE078D"/>
</linearGradient>
<linearGradient id="paint6_linear_2113_8128" x1="114.91" y1="244.196" x2="122.805" y2="285.472" gradientUnits="userSpaceOnUse">
<stop stop-color="#41C791"/>
<stop offset="0.620217" stop-color="#0674F0"/>
<stop offset="0.680217" stop-color="#6961B5"/>
<stop offset="0.813" stop-color="#F34660"/>
<stop offset="1" stop-color="#EE078D"/>
</linearGradient>
<linearGradient id="paint7_linear_2113_8128" x1="188.431" y1="73.8288" x2="234.404" y2="122.181" gradientUnits="userSpaceOnUse">
<stop stop-color="#41C791"/>
<stop offset="0.620217" stop-color="#0674F0"/>
<stop offset="0.680217" stop-color="#6961B5"/>
<stop offset="0.813" stop-color="#F34660"/>
<stop offset="1" stop-color="#EE078D"/>
</linearGradient>
<linearGradient id="paint8_linear_2113_8128" x1="238.377" y1="123.125" x2="307.4" y2="178.796" gradientUnits="userSpaceOnUse">
<stop stop-color="#41C791"/>
<stop offset="0.620217" stop-color="#0674F0"/>
<stop offset="0.680217" stop-color="#6961B5"/>
<stop offset="0.813" stop-color="#F34660"/>
<stop offset="1" stop-color="#EE078D"/>
</linearGradient>
<linearGradient id="paint9_linear_2113_8128" x1="249.327" y1="126.961" x2="378.138" y2="215.318" gradientUnits="userSpaceOnUse">
<stop stop-color="#41C791"/>
<stop offset="0.620217" stop-color="#0674F0"/>
<stop offset="0.680217" stop-color="#6961B5"/>
<stop offset="0.813" stop-color="#F34660"/>
<stop offset="1" stop-color="#EE078D"/>
</linearGradient>
<linearGradient id="paint10_linear_2113_8128" x1="269.084" y1="133.027" x2="303.141" y2="175.202" gradientUnits="userSpaceOnUse">
<stop stop-color="#41C791"/>
<stop offset="0.620217" stop-color="#0674F0"/>
<stop offset="0.680217" stop-color="#6961B5"/>
<stop offset="0.813" stop-color="#F34660"/>
<stop offset="1" stop-color="#EE078D"/>
</linearGradient>
<linearGradient id="paint11_linear_2113_8128" x1="161.447" y1="160.767" x2="212.817" y2="207.659" gradientUnits="userSpaceOnUse">
<stop stop-color="#41C791"/>
<stop offset="0.620217" stop-color="#0674F0"/>
<stop offset="0.680217" stop-color="#6961B5"/>
<stop offset="0.813" stop-color="#F34660"/>
<stop offset="1" stop-color="#EE078D"/>
</linearGradient>
<linearGradient id="paint12_linear_2113_8128" x1="92.0719" y1="181.651" x2="141.922" y2="208.012" gradientUnits="userSpaceOnUse">
<stop stop-color="#41C791"/>
<stop offset="0.620217" stop-color="#0674F0"/>
<stop offset="0.680217" stop-color="#6961B5"/>
<stop offset="0.813" stop-color="#F34660"/>
<stop offset="1" stop-color="#EE078D"/>
</linearGradient>
<linearGradient id="paint13_linear_2113_8128" x1="114.101" y1="217.227" x2="161.369" y2="258.287" gradientUnits="userSpaceOnUse">
<stop stop-color="#41C791"/>
<stop offset="0.620217" stop-color="#0674F0"/>
<stop offset="0.680217" stop-color="#6961B5"/>
<stop offset="0.813" stop-color="#F34660"/>
<stop offset="1" stop-color="#EE078D"/>
</linearGradient>
<linearGradient id="paint14_linear_2113_8128" x1="119.854" y1="173.325" x2="185.102" y2="250.696" gradientUnits="userSpaceOnUse">
<stop stop-color="#41C791"/>
<stop offset="0.620217" stop-color="#0674F0"/>
<stop offset="0.680217" stop-color="#6961B5"/>
<stop offset="0.813" stop-color="#F34660"/>
<stop offset="1" stop-color="#EE078D"/>
</linearGradient>
<linearGradient id="paint15_linear_2113_8128" x1="136.158" y1="217.227" x2="183.427" y2="258.287" gradientUnits="userSpaceOnUse">
<stop stop-color="#41C791"/>
<stop offset="0.620217" stop-color="#0674F0"/>
<stop offset="0.680217" stop-color="#6961B5"/>
<stop offset="0.813" stop-color="#F34660"/>
<stop offset="1" stop-color="#EE078D"/>
</linearGradient>
<linearGradient id="paint16_linear_2113_8128" x1="118.245" y1="139.489" x2="190.637" y2="223.007" gradientUnits="userSpaceOnUse">
<stop stop-color="#41C791"/>
<stop offset="0.620217" stop-color="#0674F0"/>
<stop offset="0.680217" stop-color="#6961B5"/>
<stop offset="0.813" stop-color="#F34660"/>
<stop offset="1" stop-color="#EE078D"/>
</linearGradient>
<clipPath id="clip0_2113_8128">
<rect width="387.177" height="299.998" fill="white"/>
</clipPath>
</defs>
</svg>
